<?xml version="1.0" standalone="no"?>
<!DOCTYPE svg PUBLIC "-//W3C//DTD SVG 20010904//EN"
 "http://www.w3.org/TR/2001/REC-SVG-20010904/DTD/svg10.dtd">
<svg version="1.0" xmlns="http://www.w3.org/2000/svg"
 width="128.000000pt" height="128.000000pt" viewBox="0 0 128.000000 128.000000"
 preserveAspectRatio="xMidYMid meet">
<metadata>
Created by potrace 1.11, written by Peter Selinger 2001-2013
</metadata>
<g transform="translate(0.000000,128.000000) scale(0.100000,-0.100000)"
fill="#000000" stroke="none">
<path d="M623 1273 c9 -2 25 -2 35 0 9 3 1 5 -18 5 -19 0 -27 -2 -17 -5z"/>
<path d="M528 1263 c7 -3 16 -2 19 1 4 3 -2 6 -13 5 -11 0 -14 -3 -6 -6z"/>
<path d="M738 1263 c7 -3 16 -2 19 1 4 3 -2 6 -13 5 -11 0 -14 -3 -6 -6z"/>
<path d="M573 1248 c-6 -7 -13 -20 -16 -28 -4 -10 -6 -7 -6 8 -1 12 -5 22 -11
22 -5 0 -7 -8 -3 -17 5 -15 3 -16 -8 -5 -7 6 -17 12 -21 12 -12 0 -10 -48 2
-55 6 -3 10 1 10 11 0 12 4 14 13 6 6 -5 28 -9 47 -8 29 1 36 5 38 25 5 33
-26 53 -45 29z m30 -14 c9 -9 -4 -35 -14 -28 -5 3 -9 12 -9 20 0 14 12 19 23
8z"/>
<path d="M630 1226 c0 -30 3 -36 22 -36 17 0 19 3 10 12 -7 7 -12 20 -12 29 0
10 -4 21 -10 24 -6 4 -10 -8 -10 -29z"/>
<path d="M687 1248 c-22 -12 -22 -47 -1 -55 9 -3 24 -2 32 4 11 7 21 4 34 -9
20 -20 38 -16 38 9 0 13 -3 13 -15 3 -13 -10 -15 -9 -15 8 0 11 8 23 18 25 9
2 2 3 -15 1 -18 -1 -33 1 -33 6 0 13 -25 19 -43 8z m31 -25 c-4 -22 -22 -20
-26 1 -2 10 3 16 13 16 10 0 15 -7 13 -17z"/>
<path d="M445 1198 c5 -22 3 -28 -10 -28 -9 0 -13 5 -10 10 3 6 1 10 -6 10 -8
0 -8 4 1 15 13 16 3 20 -18 6 -11 -6 -11 -13 -1 -35 11 -23 17 -26 38 -21 14
4 27 10 29 15 2 5 10 6 18 3 8 -3 14 0 14 6 0 7 -6 14 -14 17 -8 3 -13 11 -10
18 3 7 -4 12 -16 12 -17 0 -20 -5 -15 -28z"/>
<path d="M805 1220 c-4 -6 -1 -17 5 -25 10 -12 9 -15 -4 -15 -10 0 -14 -5 -11
-11 4 -6 14 -8 22 -5 8 3 21 -1 30 -10 8 -8 23 -13 32 -12 9 2 21 -3 28 -12
11 -13 12 -12 13 6 0 11 6 26 13 33 10 11 9 13 -5 8 -11 -4 -18 -1 -18 6 0 7
-9 1 -19 -12 -12 -16 -21 -20 -25 -12 -4 6 -2 11 5 11 8 0 7 5 -2 17 -12 15
-12 16 4 10 9 -3 17 -2 17 2 0 17 -30 20 -38 4 -9 -16 -32 -10 -32 8 0 6 5 7
10 4 6 -3 10 -1 10 4 0 14 -27 14 -35 1z"/>
<path d="M344 1204 c-18 -14 -18 -14 6 -3 31 14 36 19 24 19 -6 0 -19 -7 -30
-16z"/>
<path d="M901 1216 c2 -2 15 -9 29 -15 24 -11 24 -11 6 3 -16 13 -49 24 -35
12z"/>
<path d="M359 1188 c-14 -11 -12 -16 9 -38 21 -21 24 -22 17 -5 -4 11 -7 28
-7 38 1 20 0 21 -19 5z"/>
<path d="M558 1170 c-157 -28 -281 -110 -370 -245 -109 -166 -110 -393 -3
-567 21 -33 35 -60 34 -61 -35 -18 -45 -28 -47 -46 -4 -22 -4 -22 -25 -4 -12
10 -7 1 11 -20 30 -35 73 -75 117 -107 18 -14 19 -14 7 1 -10 14 -10 18 3 23
9 3 15 0 15 -10 0 -10 6 -14 15 -10 9 3 15 0 15 -10 0 -10 -6 -14 -15 -10 -36
13 -10 -6 43 -33 67 -34 172 -64 210 -59 24 3 25 4 9 20 -12 12 -14 18 -4 21
9 4 8 8 -3 16 -13 9 -13 11 3 11 12 0 17 -8 17 -28 0 -26 4 -29 34 -30 24 -1
36 4 38 14 2 11 6 10 16 -6 12 -19 10 -20 -35 -20 -25 0 -44 -3 -40 -6 3 -4
41 -3 84 1 61 6 73 10 53 16 -19 7 -16 8 14 4 43 -5 132 21 190 56 50 29 45
36 -5 7 l-41 -23 -26 33 c-34 41 -42 40 -42 -4 0 -23 -4 -33 -11 -28 -6 3 -9
14 -6 24 3 13 -2 18 -19 18 -25 0 -28 -8 -18 -45 5 -18 12 -21 38 -18 28 4 29
4 6 -4 -42 -15 -48 -12 -54 24 -7 35 -8 36 -44 29 -20 -4 -40 -12 -44 -18 -5
-8 -8 -7 -8 1 0 8 -14 12 -37 12 -21 -1 -58 4 -83 10 -25 6 -48 11 -52 11 -3
0 -4 -18 -1 -41 6 -40 6 -40 -23 -33 -39 9 -146 56 -140 61 2 3 21 -3 41 -13
31 -14 38 -15 45 -3 5 8 4 19 -2 26 -8 11 -7 12 7 7 13 -5 16 -3 13 7 -2 8
-14 15 -26 17 -12 2 -22 8 -22 14 0 6 -11 8 -24 6 -17 -4 -23 -1 -19 9 5 13
-12 19 -20 6 -2 -5 -2 -3 -1 4 4 16 -16 29 -25 16 -3 -5 -14 -20 -23 -33 l-18
-24 -24 24 c-29 26 -26 41 9 38 18 -2 21 -5 13 -15 -6 -8 -8 -17 -4 -21 8 -7
45 36 46 52 0 5 -3 7 -6 3 -4 -3 -14 4 -24 16 -18 21 -18 22 -39 3 -12 -11
-21 -26 -21 -34 0 -12 -3 -12 -16 -1 -14 12 -14 14 4 20 25 10 46 45 36 62 -5
6 18 -12 50 -41 122 -111 285 -160 442 -133 68 12 205 68 218 90 8 12 26 6 26
-9 0 -5 -7 -7 -16 -3 -13 5 -15 2 -9 -18 7 -21 6 -22 -9 -10 -24 20 -30 7 -11
-23 19 -28 41 -36 31 -10 -4 12 -1 14 14 9 11 -4 20 -3 20 2 0 5 9 9 20 10 20
2 20 1 -2 -17 -13 -11 -20 -19 -16 -20 11 0 93 74 130 116 18 22 23 30 10 20
-20 -18 -22 -18 -22 -2 0 10 -9 20 -20 23 -11 3 -17 10 -14 15 3 5 15 2 26 -8
15 -15 21 -16 27 -5 5 8 13 11 19 7 6 -3 14 -1 18 5 4 8 3 9 -4 5 -7 -4 -12
-2 -12 3 0 6 -9 11 -20 11 -11 0 -20 7 -20 15 0 23 -13 18 -35 -12 -11 -15
-30 -36 -42 -47 -13 -11 -23 -25 -23 -31 0 -6 -9 -11 -20 -11 -16 0 -11 10 29
51 105 107 155 228 155 375 0 188 -95 357 -259 459 -94 60 -250 90 -357 71z
m147 -103 c33 -33 55 -88 55 -139 l0 -28 45 35 c57 43 102 52 148 30 102 -48
173 -270 137 -427 -17 -73 -73 -177 -120 -223 l-40 -39 0 85 c0 78 3 91 33
145 31 56 32 64 32 169 0 97 -3 116 -25 159 -47 94 -101 107 -175 43 -28 -24
-45 -53 -68 -117 l-32 -85 -59 -3 c-53 -3 -58 -1 -53 15 45 137 58 193 54 231
-5 49 -30 82 -61 82 -33 -1 -128 -43 -179 -80 l-47 -33 0 -299 c0 -189 -4
-298 -10 -298 -5 0 -30 26 -55 58 l-45 57 0 233 c0 257 -2 248 68 325 33 35
42 34 42 -3 0 -16 1 -30 3 -30 1 0 30 26 64 59 75 71 150 111 211 111 36 0 50
-6 77 -33z m105 -462 c0 -12 -15 -15 -75 -15 l-75 0 0 -125 c0 -103 -3 -125
-15 -125 -12 0 -15 23 -17 123 l-3 122 -77 3 c-60 2 -78 6 -78 17 0 13 28 15
170 15 144 0 170 -2 170 -15z m-301 -147 l-2 -83 36 -3 c24 -2 37 -8 37 -18 0
-10 -14 -14 -55 -14 l-55 0 0 100 c0 94 1 100 21 100 19 0 20 -5 18 -82z m71
67 c0 -8 -7 -15 -15 -15 -8 0 -15 7 -15 15 0 8 7 15 15 15 8 0 15 -7 15 -15z
m158 -27 c-2 -38 0 -43 20 -46 20 -3 22 1 22 42 0 34 4 46 15 46 12 0 15 -18
15 -100 0 -80 -3 -100 -14 -100 -10 0 -16 13 -18 38 -2 29 -7 37 -23 37 -16 0
-21 -8 -23 -37 -2 -25 -8 -38 -18 -38 -11 0 -14 20 -14 100 0 95 1 100 21 100
18 0 20 -5 17 -42z m-158 -53 c0 -16 -6 -25 -15 -25 -9 0 -15 9 -15 25 0 16 6
25 15 25 9 0 15 -9 15 -25z m-80 -185 c0 -62 -17 -66 -22 -5 -3 38 1 48 20 54
1 1 2 -21 2 -49z m294 44 c11 -4 16 -19 16 -49 0 -42 -11 -57 -37 -48 -22 8
-14 21 9 15 14 -3 19 -2 14 6 -4 7 -14 12 -22 12 -14 0 -20 50 -7 63 8 8 8 8
27 1z m-194 -69 c0 -49 -11 -62 -37 -45 -16 9 -15 10 5 5 15 -5 22 -2 22 8 0
8 -9 17 -20 20 -22 6 -27 36 -9 54 22 22 39 2 39 -42z m110 34 c0 -6 -7 -9
-15 -6 -8 4 -17 2 -20 -2 -2 -5 5 -11 16 -14 29 -8 23 -62 -6 -62 -17 0 -20 8
-23 48 -3 45 -2 47 22 47 15 0 26 -5 26 -11z m-500 -8 c0 -6 -4 -13 -10 -16
-5 -3 -10 1 -10 9 0 9 5 16 10 16 6 0 10 -4 10 -9z m875 -20 c-3 -5 2 -11 10
-13 12 -2 5 -14 -24 -43 -36 -34 -41 -37 -41 -18 0 15 7 23 23 25 25 3 31 38
8 46 -10 3 -12 0 -8 -12 7 -18 -8 -22 -19 -5 -3 6 0 15 7 20 19 12 52 11 44 0z
m-75 -67 c0 -8 -4 -12 -10 -9 -5 3 -10 13 -10 21 0 8 5 12 10 9 6 -3 10 -13
10 -21z m-619 -62 c6 -15 5 -21 -1 -17 -6 3 -10 13 -10 22 0 13 -3 13 -15 3
-12 -10 -15 -9 -15 5 0 24 31 15 41 -13z m145 -56 c-4 -15 -1 -26 7 -29 7 -3
5 -6 -5 -6 -22 -1 -27 9 -17 37 11 30 23 28 15 -2z m338 3 c-29 -11 -34 -10
-28 5 3 8 13 12 27 8 20 -5 20 -6 1 -13z m-234 -5 c0 -8 -5 -12 -10 -9 -6 4
-8 11 -5 16 9 14 15 11 15 -7z m107 0 c-3 -3 -12 -4 -19 -1 -8 3 -5 6 6 6 11
1 17 -2 13 -5z"/>
<path d="M777 283 c-3 -5 -2 -15 2 -22 7 -10 10 -10 16 -1 4 6 3 16 -3 22 -5
5 -12 6 -15 1z"/>
<path d="M570 250 c0 -11 5 -20 10 -20 6 0 10 9 10 20 0 11 -4 20 -10 20 -5 0
-10 -9 -10 -20z"/>
<path d="M674 226 c-4 -10 -2 -22 4 -28 8 -8 13 -7 18 6 4 10 2 22 -4 28 -8 8
-13 7 -18 -6z"/>
<path d="M324 1157 c5 -15 2 -17 -14 -12 -14 4 -20 2 -20 -9 0 -8 5 -18 10
-21 6 -3 10 -11 10 -18 0 -6 -7 -1 -16 11 -21 31 -40 28 -20 -3 15 -22 15 -25
1 -25 -9 0 -18 7 -21 15 -5 13 -8 13 -21 -1 -14 -13 -13 -17 2 -34 19 -21 41
-28 30 -10 -3 6 1 10 9 10 9 0 16 4 16 9 0 5 9 13 21 16 13 4 18 12 15 22 -4
11 -1 13 14 8 25 -8 25 3 -1 35 -15 18 -19 20 -15 7z"/>
<path d="M954 1153 c-1 -10 -4 -27 -8 -38 -7 -18 -6 -18 12 3 11 12 26 22 33
22 7 0 5 6 -7 15 -25 19 -30 19 -30 -2z"/>
<path d="M239 1133 c-13 -16 -12 -17 4 -4 16 13 21 21 13 21 -2 0 -10 -8 -17
-17z"/>
<path d="M1020 1146 c0 -2 8 -10 18 -17 15 -13 16 -12 3 4 -13 16 -21 21 -21
13z"/>
<path d="M987 1112 c-18 -20 -22 -32 -9 -32 10 1 45 50 34 50 -5 0 -16 -8 -25
-18z"/>
<path d="M1007 1095 c-18 -18 -13 -40 10 -49 22 -9 45 13 41 38 -4 26 -31 32
-51 11z m36 -20 c-5 -16 -33 -21 -33 -7 0 13 22 32 31 26 5 -2 6 -11 2 -19z"/>
<path d="M1085 1090 c10 -11 20 -20 23 -20 3 0 -3 9 -13 20 -10 11 -20 20 -23
20 -3 0 3 -9 13 -20z"/>
<path d="M179 1083 c-13 -16 -12 -17 4 -4 16 13 21 21 13 21 -2 0 -10 -8 -17
-17z"/>
<path d="M192 1067 c-14 -17 2 -42 22 -34 9 4 16 2 16 -3 0 -16 -18 -20 -43
-11 -33 13 -41 3 -22 -26 17 -26 14 -28 -17 -12 -19 10 -20 9 -15 -10 4 -16 1
-21 -14 -21 -24 0 -24 -9 -1 -26 20 -16 46 -18 37 -4 -3 6 -1 10 5 10 6 0 9 4
6 9 -3 5 1 11 9 15 8 3 15 12 15 20 0 8 12 21 28 28 32 16 36 42 5 46 -14 2
-20 8 -16 18 6 17 -1 18 -15 1z"/>
<path d="M1057 1052 c-20 -22 -23 -39 -3 -23 11 9 12 6 8 -16 -5 -27 -4 -27
15 -10 26 23 40 22 19 -2 -14 -16 -15 -23 -6 -41 7 -13 17 -19 26 -16 12 4 14
1 9 -14 -7 -23 -5 -24 30 -8 27 12 36 34 9 24 -12 -4 -14 -1 -9 14 6 20 -9 28
-20 10 -10 -17 -35 -11 -35 8 0 14 2 15 10 2 8 -13 10 -13 10 1 0 22 36 17 56
-7 10 -13 10 -8 -3 14 -10 18 -27 41 -38 50 -20 17 -20 17 -1 -6 24 -28 16
-38 -10 -14 -11 10 -25 17 -31 15 -7 -3 -9 4 -6 16 7 26 -8 27 -30 3z"/>
<path d="M139 1033 c-13 -16 -12 -17 4 -4 9 7 17 15 17 17 0 8 -8 3 -21 -13z"/>
<path d="M1196 937 c3 -10 9 -15 12 -12 3 3 0 11 -7 18 -10 9 -11 8 -5 -6z"/>
<path d="M12 740 c0 -14 2 -19 5 -12 2 6 2 18 0 25 -3 6 -5 1 -5 -13z"/>
<path d="M1262 740 c0 -14 2 -19 5 -12 2 6 2 18 0 25 -3 6 -5 1 -5 -13z"/>
<path d="M1272 640 c0 -19 2 -27 5 -17 2 9 2 25 0 35 -3 9 -5 1 -5 -18z"/>
<path d="M11 544 c0 -11 3 -14 6 -6 3 7 2 16 -1 19 -3 4 -6 -2 -5 -13z"/>
<path d="M1261 534 c0 -11 3 -14 6 -6 3 7 2 16 -1 19 -3 4 -6 -2 -5 -13z"/>
<path d="M21 494 c0 -11 3 -14 6 -6 3 7 2 16 -1 19 -3 4 -6 -2 -5 -13z"/>
<path d="M1155 451 c-3 -5 6 -18 20 -29 19 -15 22 -22 12 -30 -8 -7 -18 -7
-27 -2 -22 14 -24 13 -39 -20 -10 -23 -10 -34 -2 -44 15 -18 60 -26 68 -13 4
6 1 7 -7 2 -10 -6 -12 -4 -7 10 4 9 2 24 -4 31 -10 12 -9 13 4 8 19 -7 40 36
31 61 -4 8 -1 15 5 15 6 0 11 5 11 10 0 13 -57 13 -65 1z m5 -113 c0 -13 -23
-5 -28 10 -2 7 2 10 12 6 9 -3 16 -11 16 -16z"/>
<path d="M91 439 c-19 -8 -22 -14 -16 -37 4 -15 8 -28 10 -30 5 -5 55 21 55
30 0 11 -7 10 -31 -2 -15 -8 -19 -7 -19 4 0 8 9 18 20 21 11 3 20 11 20 16 0
11 -8 11 -39 -2z"/>
<path d="M123 377 c-26 -11 -32 -32 -7 -23 14 5 15 4 5 -8 -20 -24 -3 -38 25
-20 22 15 36 43 14 29 -5 -3 -7 0 -4 8 8 21 -7 26 -33 14z"/>
<path d="M90 320 c6 -11 13 -20 16 -20 2 0 0 9 -6 20 -6 11 -13 20 -16 20 -2
0 0 -9 6 -20z"/>
<path d="M145 314 c-14 -11 -16 -18 -7 -21 6 -3 10 -9 7 -13 -3 -5 -1 -11 4
-14 5 -4 12 3 16 14 3 11 14 20 23 21 11 0 12 2 4 6 -6 2 -10 9 -6 14 9 15
-19 10 -41 -7z"/>
</g>
</svg>
