<?xml version="1.0" encoding="UTF-8" standalone="no"?>
<svg
   xmlns:dc="http://purl.org/dc/elements/1.1/"
   xmlns:cc="http://creativecommons.org/ns#"
   xmlns:rdf="http://www.w3.org/1999/02/22-rdf-syntax-ns#"
   xmlns:svg="http://www.w3.org/2000/svg"
   xmlns="http://www.w3.org/2000/svg"
   viewBox="0 0 485.01334 461.74667"
   height="461.74667"
   width="485.01334"
   xml:space="preserve"
   id="svg2"
   version="1.1"><metadata
     id="metadata8"><rdf:RDF><cc:Work
         rdf:about=""><dc:format>image/svg+xml</dc:format><dc:type
           rdf:resource="http://purl.org/dc/dcmitype/StillImage" /></cc:Work></rdf:RDF></metadata><defs
     id="defs6" /><g
     transform="matrix(1.3333333,0,0,-1.3333333,0,461.74667)"
     id="g10"><g
       transform="scale(0.1)"
       id="g12"><path
         id="path14"
         style="fill:#f57721;fill-opacity:1;fill-rule:nonzero;stroke:none"
         d="M 3345.16,1598.85 C 3345.16,740.699 2649.48,45 1791.31,45 933.148,45 237.48,740.699 237.48,1598.85 c 0,858.15 695.668,1553.83 1553.83,1553.83 858.17,0 1553.85,-695.68 1553.85,-1553.83" /><path
         id="path16"
         style="fill:#231f20;fill-opacity:1;fill-rule:nonzero;stroke:none"
         d="M 1791.31,3197.68 C 909.711,3197.68 192.48,2480.45 192.48,1598.85 192.48,717.25 909.711,0 1791.31,0 c 881.61,0 1598.85,717.25 1598.85,1598.85 0,881.6 -717.24,1598.83 -1598.85,1598.83 z M 3300.16,1598.85 C 3300.16,766.871 2623.3,90 1791.31,90 959.34,90 282.48,766.871 282.48,1598.85 c 0,831.97 676.86,1508.83 1508.83,1508.83 831.99,0 1508.85,-676.86 1508.85,-1508.83" /><path
         id="path18"
         style="fill:#967668;fill-opacity:1;fill-rule:nonzero;stroke:none"
         d="M 598.715,813.73 C 1240,1681.55 1636.22,2482.36 1636.22,2482.36 2035,1421.54 2613.34,893.238 2613.34,893.238 1171.51,1015.94 598.715,813.73 598.715,813.73 Z m 1933.805,800.94 c -684.39,930.67 -785.85,1765.22 -785.85,1765.22 0,0 -220,-653.34 -800.006,-1580 C 366.664,873.238 0,413.238 0,413.238 c 0,0 431.41,246.582 1765.71,249.961 1334.29,3.383 1727.63,-109.961 1727.63,-109.961 0,0 -276.42,130.762 -960.82,1061.432" /><path
         id="path20"
         style="fill:#231f20;fill-opacity:1;fill-rule:nonzero;stroke:none"
         d="m 1476.72,1260.1 h -63.65 v 310.68 h 63.65 V 1260.1" /><path
         id="path22"
         style="fill:#231f20;fill-opacity:1;fill-rule:nonzero;stroke:none"
         d="m 1459.83,1260.1 h 140.92 v 63.67 h -140.92 v -63.67" /><path
         id="path24"
         style="fill:#231f20;fill-opacity:1;fill-rule:nonzero;stroke:none"
         d="m 1723.11,1468.67 h -63.67 v -209.24 h 63.67 v 209.24" /><path
         id="path26"
         style="fill:#231f20;fill-opacity:1;fill-rule:nonzero;stroke:none"
         d="m 2029.5,1570.78 h -63.64 v -311.35 h 63.64 v 311.35" /><path
         id="path28"
         style="fill:#231f20;fill-opacity:1;fill-rule:nonzero;stroke:none"
         d="m 2185.71,1568.81 h -63.67 v -311.39 h 63.67 v 311.39" /><path
         id="path30"
         style="fill:#231f20;fill-opacity:1;fill-rule:nonzero;stroke:none"
         d="M 2141.59,1375.49 H 2022.9 v 64 h 118.69 v -64" /><path
         id="path32"
         style="fill:#231f20;fill-opacity:1;fill-rule:nonzero;stroke:none"
         d="m 1886.7,1604.3 h -63.67 v -344.87 h 63.67 v 344.87" /><path
         id="path34"
         style="fill:#231f20;fill-opacity:1;fill-rule:nonzero;stroke:none"
         d="m 1412.74,1632.15 h 773.28 v -39.8 h -773.28 v 39.8" /><path
         id="path36"
         style="fill:#231f20;fill-opacity:1;fill-rule:nonzero;stroke:none"
         d="m 1723.38,1522.71 c 0,17.76 -14.37,32.15 -32.11,32.15 -17.73,0 -32.1,-14.39 -32.1,-32.15 0,-17.73 14.37,-32.14 32.1,-32.14 17.74,0 32.11,14.41 32.11,32.14" /><path
         id="path38"
         style="fill:#231f20;fill-opacity:1;fill-rule:nonzero;stroke:none"
         d="m 1413.77,1039.65 v 28.28 l 30.05,23.05 c 51.79,39.33 76.77,61.75 77.14,85.11 0,16.29 -11.23,29.2 -38.39,29.2 -20.28,0 -38.01,-8.59 -50.34,-16.29 l -15.56,33.21 c 17.38,11.36 45.27,20.58 76.77,20.58 53.6,0 82.56,-26.42 82.56,-62.69 0,-33.5 -28.24,-60.24 -62.65,-86.06 l -21.72,-15.35 v -0.62 h 89.08 v -38.42 h -166.94" /><path
         id="path40"
         style="fill:#231f20;fill-opacity:1;fill-rule:nonzero;stroke:none"
         d="m 1699.85,1071.62 c 21.37,0 32.95,22.73 32.95,68.2 0,44.26 -11.23,67.62 -33.32,67.62 -20.64,0 -33.67,-22.42 -33.67,-67.62 -0.37,-46.07 12.67,-68.2 33.67,-68.2 z m -0.72,-35.35 c -60.84,0 -87.64,46.4 -88.01,102.95 0,58.08 28.61,103.57 89.45,103.57 62.64,0 87.64,-47.63 87.64,-102.34 0,-61.47 -29.34,-104.18 -88.73,-104.18 h -0.35" /><path
         id="path42"
         style="fill:#231f20;fill-opacity:1;fill-rule:nonzero;stroke:none"
         d="m 1900.83,1071.62 c 21.35,0 32.94,22.73 32.94,68.2 0,44.26 -11.23,67.62 -33.32,67.62 -20.63,0 -33.67,-22.42 -33.67,-67.62 -0.36,-46.07 12.68,-68.2 33.67,-68.2 z m -0.74,-35.35 c -60.83,0 -87.62,46.4 -88,102.95 0,58.08 28.62,103.57 89.46,103.57 62.64,0 87.62,-47.63 87.62,-102.34 0,-61.47 -29.32,-104.18 -88.72,-104.18 h -0.36" /><path
         id="path44"
         style="fill:#231f20;fill-opacity:1;fill-rule:nonzero;stroke:none"
         d="m 2185.08,1239.41 v -29.2 l -97.05,-170.56 h -58.3 l 97.05,160.72 v 0.63 h -107.91 v 38.41 h 166.21" /><path
         id="path46"
         style="fill:#f9e012;fill-opacity:1;fill-rule:nonzero;stroke:none"
         d="M 738.715,893.73 C 1380,1761.55 1776.22,2562.36 1776.22,2562.36 2175,1501.54 2753.34,973.242 2753.34,973.242 1311.51,1095.94 738.715,893.73 738.715,893.73 Z m 1933.805,800.93 c -684.39,930.68 -785.85,1765.23 -785.85,1765.23 0,0 -220,-653.34 -800,-1580 C 506.664,953.242 140,493.238 140,493.238 c 0,0 431.41,246.582 1765.71,249.961 1334.29,3.383 1727.63,-109.961 1727.63,-109.961 0,0 -276.42,130.762 -960.82,1061.422" /><path
         id="path48"
         style="fill:#231f20;fill-opacity:1;fill-rule:nonzero;stroke:none"
         d="M 3636.12,642.852 C 3632.16,643.98 3226.13,756.539 1905.68,753.199 584.031,749.84 139.375,504.391 135.039,501.91 l 12.777,-14.898 c 3.672,4.59 373.661,471.039 947.324,1387.558 573.99,917.06 798.8,1575.58 801,1582.13 l -19.41,1.98 c 1.03,-8.37 109.63,-847.82 787.74,-1769.95 353.95,-481.31 596.78,-744.75 738.17,-880.98 153.46,-147.871 225.82,-184.512 230.7,-184.512 z M 2680.58,1700.59 c -674.8,917.64 -782.98,1752.18 -783.99,1760.5 l -19.4,1.99 C 1875,3456.55 1650.81,2800.07 1078.19,1885.2 505.203,969.75 135.844,504.059 132.18,499.469 l -0.657,-0.821 -0.468,-0.937 -14.77,-29.551 28.676,16.391 c 4.301,2.461 445.805,245.308 1760.779,248.648 1175.2,2.973 1617.61,-83.199 1725.21,-109.668 l 6.67,18.75 c -2.74,1.309 -283.58,142.52 -957.04,1058.309" /><path
         id="path50"
         style="fill:#231f20;fill-opacity:1;fill-rule:nonzero;stroke:none"
         d="m 2760.09,980.621 v 0 c -5.77,5.277 -581.26,539.159 -974.52,1585.259 l -8.1,21.57 -10.22,-20.66 c -3.95,-8 -403.21,-810.01 -1036.582,-1667.118 l -19.375,-26.231 30.754,10.86 c 5.711,2.008 588.173,199.999 2010.453,78.98 l 29.31,-2.5 z M 746.762,887.77 c 611.188,827.12 996.488,1586.28 1038.398,1670.12 l -18.31,0.94 C 2161.92,1507.93 2740.8,971.148 2746.6,965.859 l 7.59,17.34 C 1326.72,1104.67 741.137,905.172 735.387,903.16 l 11.375,-15.39" /><path
         id="path52"
         style="fill:#231f20;fill-opacity:1;fill-rule:nonzero;stroke:none"
         d="m 509.613,1291.23 c 0.043,3.12 -1.043,8.12 -1.925,12.23 -6.633,31.7 -28.442,48.67 -65.094,40.72 -33.024,-7.15 -44.688,-29.24 -38.176,-59.3 1.633,-7.52 3.453,-12.6 4.777,-15.41 z m -117.511,-61.7 c -5.036,12.25 -9.782,28.63 -13.532,45.94 -6.367,29.37 -5.734,49.53 2.266,66.52 8.387,18.52 25.34,32.68 52.672,38.61 29.375,6.37 51.957,0.04 67.64,-11.79 16.938,-13.26 28.696,-36.7 35.219,-66.76 3.891,-17.99 5.571,-31.21 6.254,-39.9 l -150.519,-32.62" /><path
         id="path54"
         style="fill:#231f20;fill-opacity:1;fill-rule:nonzero;stroke:none"
         d="m 436.063,1507.58 5.886,-57.5 37.09,3.81 -6.578,64.19 28.977,2.97 10.179,-99.43 -156.226,-16.02 -9.856,96.22 28.973,2.96 6.25,-60.97 32.445,3.34 -5.883,57.48 28.743,2.95" /><path
         id="path56"
         style="fill:#231f20;fill-opacity:1;fill-rule:nonzero;stroke:none"
         d="m 464.066,1546.31 c 4.852,9.33 9.68,24.27 9.618,39.42 -0.086,16.31 -6.871,24.9 -17.36,24.85 -9.554,-0.05 -15.344,-7.53 -21.781,-26.44 -9.207,-26.13 -23.57,-43.44 -46.645,-43.54 -26.789,-0.11 -47.168,22.39 -47.332,59.21 -0.078,17.94 3.364,30.77 7.747,40.12 l 28.46,-7.81 c -3.003,-6.06 -7.378,-17.51 -7.308,-32.65 0.07,-15.38 7.328,-22.81 15.254,-22.77 10.011,0.05 14.402,8.69 22.23,29.23 10.129,27.77 24.52,40.66 46.879,40.75 26.34,0.12 48.793,-19.82 48.985,-62.93 0.078,-17.93 -4.739,-35.67 -9.59,-44.55 l -29.157,7.11" /><path
         id="path58"
         style="fill:#231f20;fill-opacity:1;fill-rule:nonzero;stroke:none"
         d="m 347.988,1717.68 156.657,-11.06 -2.5,-35.33 -156.653,11.07 2.496,35.32" /><path
         id="path60"
         style="fill:#231f20;fill-opacity:1;fill-rule:nonzero;stroke:none"
         d="m 519.652,1868.07 c 1.957,-11.41 3.762,-32.69 0.5,-53.16 -4.515,-28.3 -14.914,-47.64 -30.761,-59.75 -15.813,-11.87 -37.305,-16.46 -60.09,-12.83 -51.496,8.44 -74.981,50.64 -66.875,101.48 3.195,20.02 9.562,34.83 14.219,41.86 l 27.132,-11.88 c -5.269,-7.89 -9.679,-17.8 -12.39,-34.82 -4.664,-29.22 8.347,-54.18 41.941,-59.53 32.219,-5.14 54.078,12.13 58.664,40.9 1.25,7.82 1.36,14.41 0.641,17.35 l -32.676,5.21 -3.809,-23.93 -27.382,4.36 9.207,57.76 81.679,-13.02" /><path
         id="path62"
         style="fill:#231f20;fill-opacity:1;fill-rule:nonzero;stroke:none"
         d="m 532.992,1894.1 -150.847,43.67 11.531,39.83 64.351,15.33 c 18.489,4.36 39.809,7.64 58.828,9.65 l 0.137,0.45 c -20.512,3.76 -41.07,8.99 -63.902,15.59 l -43.86,12.7 9.071,31.34 150.847,-43.67 -10.375,-35.82 -67.507,-15.37 c -18.938,-4.22 -41.106,-8.73 -60.852,-10.76 l -0.269,-0.9 c 20.476,-4.72 41.863,-10.43 66.488,-17.55 l 45.433,-13.16 -9.074,-31.33" /><path
         id="path64"
         style="fill:#231f20;fill-opacity:1;fill-rule:nonzero;stroke:none"
         d="m 917.953,2584.11 c 17.949,15.91 13.223,41.95 -7.187,64.96 -18.711,21.08 -44.727,30.39 -63.028,14.15 -18.3,-16.24 -12.8,-43.14 6.68,-65.09 19.648,-22.14 45.578,-29.96 63.359,-14.18 z m 17.481,-22.19 c -34.676,-30.76 -78.594,-22.7 -108.282,10.76 -31.238,35.21 -31.933,81.62 2.578,112.25 36.075,32.01 79.727,22.46 108.508,-9.95 34.325,-38.69 31.707,-82.44 -2.629,-112.91 l -0.175,-0.15" /><path
         id="path66"
         style="fill:#231f20;fill-opacity:1;fill-rule:nonzero;stroke:none"
         d="m 1102.85,2697.56 c -3.45,-6.07 -13.59,-17.63 -29.09,-28.38 -44.6,-30.95 -86.967,-18.94 -112.592,18.01 -30.559,44.04 -16.027,90.13 23.035,117.22 15.117,10.5 28.727,15.4 35.767,16.3 l 9.81,-27.22 c -7.47,-1.49 -17.29,-4.91 -27.83,-12.21 -22.981,-15.94 -31.262,-42.4 -11.223,-71.3 17.933,-25.85 44.533,-31.5 70.383,-13.57 9,6.24 17.37,14.61 21.59,21.21 l 20.15,-20.06" /><path
         id="path68"
         style="fill:#231f20;fill-opacity:1;fill-rule:nonzero;stroke:none"
         d="m 1082.64,2861.84 28.52,-53.44 51.6,27.53 -28.53,53.45 31.25,16.67 73.93,-138.55 -31.24,-16.68 -30.82,57.77 -51.6,-27.53 30.82,-57.77 -31.24,-16.66 -73.94,138.54 31.25,16.67" /><path
         id="path70"
         style="fill:#231f20;fill-opacity:1;fill-rule:nonzero;stroke:none"
         d="m 2146.56,2926.97 c 2.72,-1.49 6.25,-2.72 11.18,-4.11 18.17,-5.12 31.97,0.93 36.27,16.18 3.91,13.9 -3.18,24.85 -20.45,29.71 -6.94,1.96 -11.79,2.83 -14.44,2.86 z m -14.55,78.17 c 11.04,-1.18 26.22,-4 47.09,-9.87 21.08,-5.93 35.19,-14.26 42.95,-25.4 7.55,-10.12 10.3,-24.44 6.14,-39.24 -4.23,-15.03 -12.47,-26.27 -23.78,-32.04 -14.7,-7.49 -33.63,-7.71 -53.83,-2.04 -4.48,1.26 -8.46,2.63 -11.41,4.18 l -15.27,-54.28 -33.88,9.53 41.99,149.16" /><path
         id="path72"
         style="fill:#231f20;fill-opacity:1;fill-rule:nonzero;stroke:none"
         d="m 2261.72,2894.63 13.08,-4.95 c 16.55,-6.27 29.5,-1.7 34.37,11.16 5.02,13.29 -1.49,23.72 -16.74,29.5 -8.06,3.05 -12.81,4.34 -15.45,4.59 z m -9.07,75.42 c 11.43,-2.07 27.61,-6.71 45.47,-13.47 21.8,-8.24 35.81,-17.29 43.06,-29.74 6.3,-10.36 7.2,-22.42 2.1,-35.93 -7.02,-18.52 -25.18,-26.35 -39.54,-26.14 l -0.25,-0.65 c 8.67,-8.02 10.71,-19.75 9.3,-34.66 -1.77,-18.51 -4.67,-39.34 -3.99,-46.08 l -33.99,12.87 c -0.61,4.96 0.22,18.35 2.93,38 2.87,20.09 -1.63,27.28 -15.29,32.69 l -9.8,3.71 -21.85,-57.75 -32.9,12.46 54.75,144.69" /><path
         id="path74"
         style="fill:#231f20;fill-opacity:1;fill-rule:nonzero;stroke:none"
         d="m 2380.27,2776.45 c 21.47,-10.72 43.87,3.35 57.62,30.88 12.58,25.22 11.53,52.83 -10.36,63.76 -21.89,10.93 -44.8,-4.19 -57.92,-30.45 -13.22,-26.47 -10.82,-53.46 10.44,-64.08 z m -14.05,-24.49 c -41.49,20.72 -50.37,64.48 -30.38,104.5 21.03,42.11 63.85,60.05 105.12,39.44 43.16,-21.55 50.57,-65.63 31.2,-104.4 -23.1,-46.28 -64.67,-60.15 -105.74,-39.64 l -0.2,0.1" /><path
         id="path76"
         style="fill:#231f20;fill-opacity:1;fill-rule:nonzero;stroke:none"
         d="m 2482.25,2721.53 c 2.16,-2.24 6.48,-5.02 9.99,-7.3 27.08,-17.76 54.49,-14.4 74.85,17.1 18.34,28.38 11.02,52.26 -14.82,68.95 -6.45,4.17 -11.34,6.5 -14.26,7.55 z m 39.67,126.66 c 12.23,-5.12 27.14,-13.38 42.02,-22.99 25.24,-16.31 39.03,-31.04 45.36,-48.72 7.12,-19.03 5.11,-41.04 -10.07,-64.52 -16.31,-25.25 -36.76,-36.72 -56.24,-39.4 -21.35,-2.56 -46.22,5.74 -72.06,22.44 -15.46,9.98 -25.98,18.17 -32.6,23.82 l 83.59,129.37" /><path
         id="path78"
         style="fill:#231f20;fill-opacity:1;fill-rule:nonzero;stroke:none"
         d="m 2680.83,2742.19 -56.67,-70.13 c -17.15,-21.2 -17.63,-38.48 -3.68,-49.75 14.5,-11.72 30.68,-8.02 48.25,13.73 l 56.68,70.12 27.54,-22.26 -55.37,-68.51 c -30.46,-37.68 -63.98,-40.24 -95.88,-14.47 -30.8,24.9 -34.83,56.62 -3.48,95.4 l 55.07,68.14 27.54,-22.27" /><path
         id="path80"
         style="fill:#231f20;fill-opacity:1;fill-rule:nonzero;stroke:none"
         d="m 2770.01,2668.12 25.04,-24.72 -48.78,-49.41 0.34,-0.33 c 6.74,1.85 13.33,3.22 19.9,4.59 l 61.88,12.25 31.17,-30.77 -83.95,-11.09 -24.55,-102.47 -29.35,28.97 20.1,75.43 -21.07,-2.45 -36.02,-36.48 -25.03,24.71 110.32,111.77" /><path
         id="path82"
         style="fill:#231f20;fill-opacity:1;fill-rule:nonzero;stroke:none"
         d="m 2867.84,2523.21 -27.25,32.51 22.87,19.15 77.51,-92.52 -22.87,-19.15 -27.53,32.86 -97.52,-81.7 -22.74,27.15 97.53,81.7" /><path
         id="path84"
         style="fill:#231f20;fill-opacity:1;fill-rule:nonzero;stroke:none"
         d="m 2972,2438.75 -74.51,-50.8 c -22.53,-15.35 -27.98,-31.75 -17.88,-46.58 10.5,-15.39 27.06,-16.52 50.15,-0.77 l 74.51,50.79 19.95,-29.27 -72.77,-49.61 c -40.05,-27.29 -72.89,-20.06 -95.99,13.81 -22.31,32.73 -17.01,64.26 24.19,92.35 l 72.39,49.34 19.96,-29.26" /><path
         id="path86"
         style="fill:#231f20;fill-opacity:1;fill-rule:nonzero;stroke:none"
         d="m 3025.22,2299.34 -20.45,37.16 26.14,14.38 58.18,-105.76 -26.14,-14.37 -20.66,37.57 -111.46,-61.32 -17.08,31.03 111.47,61.31" /><path
         id="path88"
         style="fill:#231f20;fill-opacity:1;fill-rule:nonzero;stroke:none"
         d="m 2968.23,2131 124.27,108.4 15.41,-35.72 -53.4,-43.85 c -15.22,-12.39 -29.54,-23.91 -46.04,-35.08 l 0.28,-0.63 c 18.9,3.83 37.95,6.71 56.55,8.9 l 69.56,8.18 14.95,-34.66 -165.16,-13.63 -16.42,38.09" /><path
         id="path90"
         style="fill:#231f20;fill-opacity:1;fill-rule:nonzero;stroke:none"
         d="m 3094.83,1981.85 -18.16,54.85 -35.4,-11.72 20.3,-61.27 -27.65,-9.16 -31.42,94.9 149.08,49.36 30.4,-91.77 -27.65,-9.17 -19.27,58.17 -30.96,-10.25 18.16,-54.86 -27.43,-9.08" /><path
         id="path92"
         style="fill:#231f20;fill-opacity:1;fill-rule:nonzero;stroke:none"
         d="m 3065.87,1840.64 c -4.42,5.41 -11.53,19.03 -15.95,37.38 -12.7,52.78 13.83,87.92 57.56,98.45 52.1,12.54 89.81,-17.69 100.93,-63.91 4.3,-17.89 3.95,-32.36 2.25,-39.24 l -28.93,0.72 c 1.31,7.5 1.68,17.9 -1.31,30.36 -6.55,27.18 -28.2,44.49 -62.41,36.26 -30.58,-7.36 -45.48,-30.11 -38.11,-60.7 2.56,-10.64 7.32,-21.48 11.95,-27.79 l -25.98,-11.53" /><path
         id="path94"
         style="fill:#231f20;fill-opacity:1;fill-rule:nonzero;stroke:none"
         d="m 3218.93,1851.56 4.82,-34.86 -68.77,-9.53 0.06,-0.45 c 6.48,-2.63 12.53,-5.56 18.59,-8.49 l 56.55,-27.91 6.01,-43.4 -73.37,42.3 -81.83,-66.38 -5.66,40.85 61.85,47.61 -18.21,10.89 -50.77,-7.04 -4.83,34.85 155.56,21.56" /><path
         id="path96"
         style="fill:#231f20;fill-opacity:1;fill-rule:nonzero;stroke:none"
         d="m 3236.67,1709.12 1.64,-35.37 -127.08,-5.89 2.9,-62.39 -29.79,-1.38 -4.55,97.75 156.88,7.28" /><path
         id="path98"
         style="fill:#231f20;fill-opacity:1;fill-rule:nonzero;stroke:none"
         d="m 3239.65,1553.81 -157.01,2.93 0.67,35.41 157.01,-2.93 -0.67,-35.41" /><path
         id="path100"
         style="fill:#231f20;fill-opacity:1;fill-rule:nonzero;stroke:none"
         d="m 3083.8,1546.76 156.4,-14.26 -3.77,-41.31 -60.27,-27.25 c -17.33,-7.77 -37.64,-15.05 -55.92,-20.64 l -0.05,-0.47 c 20.84,0.22 42.01,-1.01 65.68,-3.18 l 45.48,-4.14 -2.96,-32.48 -156.38,14.25 3.38,37.13 63.36,27.91 c 17.8,7.74 38.71,16.35 57.71,22.11 l 0.09,0.94 c -20.99,0.74 -43.08,2.29 -68.6,4.61 l -47.11,4.3 2.96,32.48" /><path
         id="path102"
         style="fill:#231f20;fill-opacity:1;fill-rule:nonzero;stroke:none"
         d="m 3051.72,1277.6 c -1.49,11.46 -2.42,32.81 1.67,53.14 5.66,28.09 16.83,46.99 33.16,58.44 16.28,11.21 37.95,14.94 60.56,10.39 51.12,-10.53 72.86,-53.65 62.69,-104.14 -4,-19.86 -10.96,-34.4 -15.9,-41.23 l -26.62,12.97 c 5.59,7.65 10.39,17.38 13.8,34.29 5.84,29.01 -6.15,54.48 -39.49,61.2 -31.99,6.42 -54.53,-9.95 -60.29,-38.5 -1.56,-7.75 -1.94,-14.34 -1.34,-17.33 l 32.43,-6.52 4.78,23.77 27.19,-5.49 -11.55,-57.32 -81.09,16.33" /><path
         id="path104"
         style="fill:#231f20;fill-opacity:1;fill-rule:nonzero;stroke:none"
         d="m 1238.97,407.969 32.59,-13.867 -49.84,-117.051 57.45,-24.469 -11.67,-27.441 -90.05,38.339 61.52,144.489" /><path
         id="path106"
         style="fill:#231f20;fill-opacity:1;fill-rule:nonzero;stroke:none"
         d="m 1388.33,349.898 -50.43,-148.726 -33.54,11.367 50.41,148.731 33.56,-11.372" /><path
         id="path108"
         style="fill:#231f20;fill-opacity:1;fill-rule:nonzero;stroke:none"
         d="m 1383.89,185.641 36.84,152.66 40.31,-9.731 18.21,-63.59 c 5.18,-18.281 9.43,-39.429 12.29,-58.339 l 0.46,-0.102 c 2.83,20.652 7.12,41.41 12.69,64.512 l 10.71,44.398 31.71,-7.64 -36.83,-152.668 -36.25,8.75 -18.4,66.75 c -5.08,18.73 -10.57,40.668 -13.5,60.32 l -0.9,0.211 c -3.78,-20.66 -8.53,-42.281 -14.55,-67.211 l -11.08,-45.973 -31.71,7.653" /><path
         id="path110"
         style="fill:#231f20;fill-opacity:1;fill-rule:nonzero;stroke:none"
         d="m 1577.06,302.93 34.92,-4.239 -8.34,-68.929 0.46,-0.051 c 4.19,5.598 8.57,10.699 12.94,15.801 l 41.44,47.558 43.48,-5.281 -59.61,-60.129 43.28,-96.078 -40.96,4.957 -30.23,71.973 -15.18,-14.84 -6.16,-50.883 -34.93,4.223 18.89,155.918" /><path
         id="path112"
         style="fill:#231f20;fill-opacity:1;fill-rule:nonzero;stroke:none"
         d="m 1810.32,295.699 c -9.09,0.02 -15.6,7.27 -15.58,15.672 0.04,9.078 6.81,15.82 15.9,15.801 8.62,-0.043 15.35,-6.82 15.33,-15.902 -0.03,-8.379 -6.57,-15.59 -15.43,-15.571 z M 1786.39,155.27 c 24,-0.059 37.57,22.5 37.66,53.242 0.08,28.207 -13.13,52.468 -37.6,52.539 -24.23,0.058 -38.05,-23.653 -38.12,-53.02 -0.08,-29.59 14.06,-52.699 37.83,-52.761 z m -23.14,140.57 c -8.85,0.019 -15.82,7.262 -15.8,15.64 0.03,9.09 7.03,15.84 16.12,15.801 8.39,-0.019 15.13,-6.793 15.11,-15.871 -0.03,-8.398 -6.58,-15.609 -15.2,-15.57 z m 21.43,-168.75 c -46.37,0.121 -73.76,35.371 -73.64,80.121 0.14,47.07 30.29,82.16 76.65,82.027 48.23,-0.136 74.46,-36.308 74.34,-79.648 -0.14,-51.738 -31.21,-82.641 -77.11,-82.5 h -0.24" /><path
         id="path114"
         style="fill:#231f20;fill-opacity:1;fill-rule:nonzero;stroke:none"
         d="m 1928.36,220.059 c 3.09,-0.368 6.82,-0.18 11.92,0.39 18.75,2.11 29.26,12.91 27.49,28.653 -1.6,14.359 -12.3,21.82 -30.12,19.82 -7.19,-0.801 -11.99,-1.813 -14.46,-2.793 z m -42.92,66.91 c 10.68,3.09 25.81,6.191 47.34,8.601 21.77,2.461 37.97,0.051 49.35,-7.351 10.82,-6.52 18.76,-18.77 20.47,-34.039 1.74,-15.508 -1.66,-29.02 -9.96,-38.629 -10.79,-12.469 -28.26,-19.832 -49.1,-22.153 -4.63,-0.527 -8.82,-0.757 -12.14,-0.429 l 6.29,-56.039 -34.96,-3.918 -17.29,153.957" /><path
         id="path116"
         style="fill:#231f20;fill-opacity:1;fill-rule:nonzero;stroke:none"
         d="m 2059.5,314.352 29.98,-154.141 -34.77,-6.77 -29.98,154.161 34.77,6.75" /><path
         id="path118"
         style="fill:#231f20;fill-opacity:1;fill-rule:nonzero;stroke:none"
         d="m 2137.16,169.551 -43.55,150.879 39.85,11.5 47.31,-46.25 c 13.54,-13.321 27.69,-29.59 39.54,-44.61 l 0.46,0.141 c -7.78,19.34 -14.32,39.508 -20.92,62.34 l -12.67,43.89 31.35,9.039 43.55,-150.878 -35.82,-10.352 -49.04,48.91 c -13.67,13.75 -29.3,30.102 -41.57,45.719 l -0.89,-0.25 c 6.94,-19.848 13.53,-40.981 20.63,-65.609 l 13.11,-45.43 -31.34,-9.039" /><path
         id="path120"
         style="fill:#231f20;fill-opacity:1;fill-rule:nonzero;stroke:none"
         d="m 2425.83,279.82 c -8.62,-7.691 -25.71,-20.519 -44.8,-28.629 -26.38,-11.191 -48.28,-12.66 -66.95,-5.64 -18.46,7.109 -33.76,22.871 -42.78,44.121 -20.18,48.117 3.13,90.41 50.53,110.539 18.65,7.91 34.57,10.371 43.02,10.16 l 4.33,-29.301 c -9.48,0.282 -20.23,-1.25 -36.1,-7.968 -27.24,-11.582 -41.48,-35.84 -28.19,-67.161 12.74,-30.019 39,-39.382 65.81,-27.992 7.28,3.082 12.93,6.5 15.05,8.653 l -12.93,30.468 -22.31,-9.468 -10.84,25.519 53.84,22.859 32.32,-76.16" /></g></g></svg>