<?xml version="1.0" encoding="UTF-8" standalone="no"?>
<svg
   xmlns:dc="http://purl.org/dc/elements/1.1/"
   xmlns:cc="http://creativecommons.org/ns#"
   xmlns:rdf="http://www.w3.org/1999/02/22-rdf-syntax-ns#"
   xmlns:svg="http://www.w3.org/2000/svg"
   xmlns="http://www.w3.org/2000/svg"
   viewBox="0 0 578.66669 578.66669"
   height="578.66669"
   width="578.66669"
   xml:space="preserve"
   id="svg2"
   version="1.1"><metadata
     id="metadata8"><rdf:RDF><cc:Work
         rdf:about=""><dc:format>image/svg+xml</dc:format><dc:type
           rdf:resource="http://purl.org/dc/dcmitype/StillImage" /></cc:Work></rdf:RDF></metadata><defs
     id="defs6" /><g
     transform="matrix(1.3333333,0,0,-1.3333333,0,578.66667)"
     id="g10"><g
       transform="scale(0.1)"
       id="g12"><path
         id="path14"
         style="fill:#fff200;fill-opacity:1;fill-rule:nonzero;stroke:none"
         d="M 4340.01,2170 C 4340.01,971.551 3368.45,0 2170.01,0 971.543,0 0,971.551 0,2170 c 0,1198.47 971.543,2170.01 2170.01,2170.01 1198.44,0 2170,-971.54 2170,-2170.01" /><path
         id="path16"
         style="fill:#ed1c24;fill-opacity:1;fill-rule:nonzero;stroke:none"
         d="m 3988.82,2170.01 c 0,-1004.5 -814.31,-1818.819 -1818.82,-1818.819 -1004.49,0 -1818.809,814.319 -1818.809,1818.819 0,1004.5 814.319,1818.82 1818.809,1818.82 1004.51,0 1818.82,-814.32 1818.82,-1818.82" /><path
         id="path18"
         style="fill:#fff200;fill-opacity:1;fill-rule:nonzero;stroke:none"
         d="m 794.453,1386.25 v 1557.44 c 0,0 76.582,141.62 149.192,224.12 103.875,118.03 248.645,241.78 248.645,241.78 v -273.01 c 0,0 363.39,487.28 802.01,597.22 346.46,86.84 527.1,-175.46 573.41,-413.61 32.71,-168.36 24.32,-270.83 24.32,-270.83 0,0 262.28,349.05 589.61,264.41 319.57,-82.64 672.57,-813.91 551.97,-1419.81 -142.05,-713.75 -591.37,-980.319 -591.37,-980.319 v 625.739 c 0,0 281.09,238.47 252.93,836.25 -10.19,216.4 -109.61,661.73 -330.84,719.96 -248.87,65.48 -500.23,-244.85 -500.23,-244.85 0,0 -56.96,-180.58 -86.68,-266.85 -50.32,-145.95 -123.54,-310.36 -123.54,-310.36 h -414.99 c 0,0 126.93,306.65 192.24,577.5 88.36,366.39 -41.49,539.6 -174.74,530 -383.09,-27.61 -764.1,-383.65 -764.1,-383.65 l -0.12,-2078.849 c 0,0 -153.28,124.999 -243.283,239.999 -90,115 -154.434,227.72 -154.434,227.72" /><path
         id="path20"
         style="fill:#fff200;fill-opacity:1;fill-rule:nonzero;stroke:none"
         d="m 1699.21,1037.29 -63.46,-0.01 c 0,0 -5.26,-13.64 -15.3,-21.05 -10.05,-7.41 -29.67,-6.94 -29.67,-6.94 v -50.458 l 35.4,0.227 -0.81,-283.168 h 73.84 v 361.399" /><path
         id="path22"
         style="fill:#fff200;fill-opacity:1;fill-rule:nonzero;stroke:none"
         d="m 1982.03,795.121 c -0.33,-13.672 -6.58,-29 -24.39,-29.09 -15.06,-0.082 -23.88,17.008 -23.71,29.75 0.17,12.52 -0.11,65.77 0,80.059 0.16,20.262 7.09,29.98 23.88,29.98 17.5,0 24.22,-17.629 24.55,-30.48 0.32,-12.559 -0.06,-68.969 -0.33,-80.219 z m 71.6,73.949 c -3.61,79.02 -59.74,95.711 -102.24,95.711 -42.5,0 -62.99,-16.691 -77.5,-36.25 -19.22,-25.91 -18.33,-65.031 -16.25,-115 2.5,-60 23.75,-95 67.5,-102.5 43.75,-7.5 57.8,18.871 57.8,18.871 0,0 1.39,-35.492 1.39,-44.632 0,-7.598 3.31,-30.489 -24.19,-32.989 -27.5,-2.5 -24.61,37.141 -24.61,37.141 l -72.89,0.359 c 0,0 -6.95,-96.551 102.5,-95 63.75,0.891 90,33.75 91.25,100 1.79,94.86 -0.35,121.571 -2.76,174.289" /><path
         id="path24"
         style="fill:#fff200;fill-opacity:1;fill-rule:nonzero;stroke:none"
         d="m 2298.06,759.762 c 0.51,13.66 6.97,28.898 24.79,28.758 15.06,-0.129 23.65,-17.34 23.3,-30.071 -0.33,-12.519 -0.76,-65.769 -1.08,-80.051 -0.43,-20.269 -7.48,-29.878 -24.27,-29.656 -17.5,0.227 -23.99,17.949 -24.14,30.797 -0.16,12.57 0.97,68.973 1.4,80.223 z m -72.58,-72.992 c 2.54,-79.051 58.44,-96.5 100.94,-97.071 42.5,-0.57 63.2,15.84 77.99,35.203 19.57,25.657 19.2,64.778 17.79,114.778 -1.7,60.031 -22.46,95.312 -66.11,103.402 -43.65,8.078 -58.05,-18.102 -58.05,-18.102 0,0 -0.92,35.5 -0.8,44.641 0.12,7.609 -2.89,30.539 24.63,32.68 27.54,2.121 24.12,-37.492 24.12,-37.492 l 72.87,-1.317 c 0,0 8.24,96.43 -101.21,96.36 -63.75,-0.043 -90.45,-32.543 -92.58,-98.77 -3.08,-94.82 -1.29,-121.562 0.41,-174.312" /><path
         id="path26"
         style="fill:#fff200;fill-opacity:1;fill-rule:nonzero;stroke:none"
         d="m 2688.69,870.121 c -0.34,-13.672 -6.59,-29 -24.4,-29.09 -15.06,-0.082 -23.87,17.008 -23.71,29.75 0.18,12.52 -0.1,65.77 0,80.059 0.18,20.262 7.09,29.98 23.89,29.98 17.5,0 24.22,-17.629 24.55,-30.48 0.31,-12.559 -0.06,-68.969 -0.33,-80.219 z m 71.6,73.949 c -3.62,79.02 -59.75,95.71 -102.25,95.71 -42.5,0 -62.99,-16.69 -77.5,-36.25 -19.22,-25.909 -18.32,-65.03 -16.25,-114.999 2.5,-60 23.75,-95 67.5,-102.5 43.75,-7.5 57.81,18.871 57.81,18.871 0,0 1.39,-35.492 1.39,-44.632 0,-7.598 3.3,-30.489 -24.2,-32.989 -27.5,-2.5 -24.61,37.141 -24.61,37.141 l -72.89,0.359 c 0,0 -6.93,-96.551 102.5,-95 63.75,0.891 90,33.75 91.25,100 1.8,94.86 -0.35,121.571 -2.75,174.289" /><path
         id="path28"
         style="fill:#ed1c24;fill-opacity:1;fill-rule:nonzero;stroke:none"
         d="m 1450.41,3999.71 55.36,21.59 -59.45,80.75 z m -27.28,-101.41 -8.6,216.95 48.05,18.08 134.26,-172.7 -38.07,-10.93 -32.95,45.41 -72.11,-27.1 0.83,-55.44 -31.41,-14.27" /><path
         id="path30"
         style="fill:#ed1c24;fill-opacity:1;fill-rule:nonzero;stroke:none"
         d="m 1618.65,3989.27 -10.11,37.29 c 14.03,-10.98 47.65,-20.31 59.99,-16.49 11,3.41 36.26,8.42 32.54,37.18 -3.38,26.11 -34.12,25.99 -61.03,22.98 0,0 -18.58,-3.2 -42.37,14.41 -9,6.65 -20.85,24.91 -21.71,36.54 -3.67,49.12 32.58,63.62 53.2,69.05 15.39,4.06 32.5,7.11 57.01,-6.66 l 8.92,-32.71 c -27.82,12.85 -41.21,14.64 -52.86,11.59 -9.61,-2.53 -38.44,-17.22 -28.82,-40.05 10.26,-24.34 27.82,-16.16 46.75,-14.81 52.69,3.76 67.9,-33.52 70.74,-44.27 4.04,-15.39 5.23,-34.93 -3.81,-48.98 -9.04,-14.07 -19.55,-26.63 -45.63,-34.05 -19.14,-5.45 -43.75,1.44 -62.81,8.98" /><path
         id="path32"
         style="fill:#ed1c24;fill-opacity:1;fill-rule:nonzero;stroke:none"
         d="m 2268.88,4052.19 8.36,167.65 -53.28,3.09 1.39,38.06 147.97,-7.78 -0.94,-37.33 -56.49,3.51 -8.38,-169.06 -38.63,1.86" /><path
         id="path34"
         style="fill:#ed1c24;fill-opacity:1;fill-rule:nonzero;stroke:none"
         d="m 2391.17,4042.5 24.55,202.36 126.64,-17.37 -5.55,-33.64 -90.84,12.7 -6.25,-51.24 89.96,-12.85 -2.77,-28.52 -90.04,11.39 -8.57,-58.55 91.38,-10 -4.29,-32.83 -124.22,18.55" /><path
         id="path36"
         style="fill:#ed1c24;fill-opacity:1;fill-rule:nonzero;stroke:none"
         d="m 2553.35,4013.77 47.62,205.93 34.94,-8.02 -23.43,-94.93 95.31,72.53 38.06,-9.37 -101.97,-80.29 58.01,-120.31 -45.16,13.23 -49.14,105.73 -19.29,-92.48 -34.95,7.98" /><path
         id="path38"
         style="fill:#ed1c24;fill-opacity:1;fill-rule:nonzero;stroke:none"
         d="m 2733.18,3968.32 68.61,195.06 53.32,-19.09 11.76,-188.43 53.69,166.39 31.82,-10.8 -69.18,-198.27 -42.27,17.96 -19.88,190.1 -55.8,-162.97 -32.07,10.05" /><path
         id="path40"
         style="fill:#ed1c24;fill-opacity:1;fill-rule:nonzero;stroke:none"
         d="m 1787.95,4010.66 -43.04,206.93 35.09,7.35 17.78,-90.29 52.49,102.77 38.49,7.44 -56.18,-116.76 100.19,-87 -44.18,-5.74 -86.79,74.74 21.23,-92.05 -35.08,-7.39" /><path
         id="path42"
         style="fill:#ed1c24;fill-opacity:1;fill-rule:nonzero;stroke:none"
         d="m 1953.75,4046.8 -15.57,206.28 39.92,2.97 15.57,-206.27 -39.92,-2.98" /><path
         id="path44"
         style="fill:#ed1c24;fill-opacity:1;fill-rule:nonzero;stroke:none"
         d="m 2933.39,3893.65 86.82,187.77 36.33,-16.85 -86.82,-187.75 -36.33,16.83" /><path
         id="path46"
         style="fill:#ed1c24;fill-opacity:1;fill-rule:nonzero;stroke:none"
         d="m 3017.08,3855.54 99.4,182.69 31.15,-16.88 -44.12,-79.08 105.1,43.57 33.77,-19 -116.8,-51.7 20.16,-129.25 -40.08,21.7 -14.75,113.7 -42.65,-82.6 -31.18,16.85" /><path
         id="path48"
         style="fill:#ed1c24;fill-opacity:1;fill-rule:nonzero;stroke:none"
         d="m 2037.09,4055.35 -7.13,201.32 54.84,1.18 79.37,-166.8 -7.51,172.27 33.59,1.2 3.91,-207.74 -41.41,2.85 -88.53,168.48 7.14,-174.19 -34.27,1.43" /><path
         id="path50"
         style="fill:#ed1c24;fill-opacity:1;fill-rule:nonzero;stroke:none"
         d="m 1219.73,3786.86 -97.94,186.89 51.27,28.11 110,-120 -38.33,156.67 52.59,28.42 95.74,-185.09 -28.33,-16.67 -76.67,146.67 33.33,-166.67 -31.66,-16.66 -123.34,128.33 78.34,-155 -25,-15" /><path
         id="path52"
         style="fill:#ed1c24;fill-opacity:1;fill-rule:nonzero;stroke:none"
         d="m 3688.02,765.262 -28.42,26.187 c 17.74,-1.84 51.18,8.172 59.57,17.961 7.5,8.738 26.24,26.442 7.76,48.801 -16.76,20.301 -42.72,3.84 -63.89,-13.031 0,0 -14.04,-12.61 -43.53,-10.371 -11.18,0.839 -30.92,9.992 -37.85,19.371 -29.26,39.629 -6.29,71.199 8.28,86.781 10.86,11.621 23.71,23.328 51.79,24.711 l 24.96,-22.953 c -30.39,-3.918 -42.67,-9.528 -50.91,-18.328 -6.78,-7.25 -23.34,-35.032 -3.07,-49.211 21.64,-15.16 32.17,1.109 47.46,12.332 42.6,31.238 75.33,7.769 83.46,0.199 11.62,-10.871 23.03,-26.781 22.87,-43.5 -0.2,-16.719 -2.38,-32.949 -20.51,-53.129 -13.3,-14.801 -37.81,-22.062 -57.97,-25.82" /><path
         id="path54"
         style="fill:#ed1c24;fill-opacity:1;fill-rule:nonzero;stroke:none"
         d="m 3655.5,731.219 c 5.53,-19.477 -11.68,-53.18 -27.56,-68.379 -25.13,-24.051 -53.32,-29.57 -78.47,-23.5 -25.14,6.082 -47.52,21.359 -67.17,45.832 -12.83,16 -21.64,32.547 -26.5,49.648 -4.85,17.141 -4.67,33.731 0.48,49.821 5.16,16.07 12.13,28.359 30.94,43.398 15.86,12.703 40.22,22.68 65.82,10.973 l 25.84,-31.09 c -27.79,14.328 -59.26,2.129 -64.47,-2.043 -16.99,-13.609 -28.03,-29 -28.46,-48.367 -0.43,-18.293 10.16,-32.352 24.05,-49.653 15.15,-18.898 35.91,-32.148 53.65,-36.23 17.79,-4.098 31.27,-1.399 42.34,11.09 12.62,14.191 17.21,22.441 19.02,30.101 l -49.51,52.121 27.8,24.911 52.2,-58.633" /><path
         id="path56"
         style="fill:#ed1c24;fill-opacity:1;fill-rule:nonzero;stroke:none"
         d="m 3824.29,881.309 -169.69,121.921 20.96,29.08 72.46,-52.751 -32.69,108.041 23.45,31.42 39.36,-120.86 132.68,3.21 -26.96,-37.39 -116.35,0.161 77.74,-53.739 -20.96,-29.093" /><path
         id="path58"
         style="fill:#ed1c24;fill-opacity:1;fill-rule:nonzero;stroke:none"
         d="m 3450.15,538.25 c 13.07,11.059 17.74,25.332 14.02,42.84 -3.71,17.519 -12.09,34.109 -25.13,49.742 -13.09,15.699 -27.87,26.867 -44.32,33.488 -16.48,6.621 -31.23,4.43 -44.26,-6.578 -13.06,-11.043 -17.81,-25.34 -14.16,-42.801 3.62,-17.492 11.98,-34.07 25.08,-49.769 13.05,-15.613 27.79,-26.813 44.3,-33.531 16.48,-6.711 31.31,-4.512 44.47,6.609 z m 19.43,-24.059 c -14.12,-11.921 -31.15,-17.812 -47.1,-20.011 -16,-2.2 -31.76,2.32 -47.58,10.179 -15.82,7.86 -30.32,19.672 -43.48,35.43 -13.07,15.691 -22.09,32.082 -27.07,49.172 -4.98,17.07 -6.07,35.84 -1.09,51.371 5,15.52 14.78,29.117 28.77,40.957 13.94,11.77 30.47,18.391 46.52,20.641 16.03,2.261 31.23,-2.559 47.09,-10.45 15.88,-7.898 30.33,-19.671 43.44,-35.359 13.12,-15.762 22.15,-32.16 27.13,-49.223 4.94,-17.066 4.96,-33.308 0.07,-48.738 -4.9,-15.441 -12.57,-32.039 -26.7,-43.969" /><path
         id="path60"
         style="fill:#ed1c24;fill-opacity:1;fill-rule:nonzero;stroke:none"
         d="m 3284.74,697.84 c 8.28,6.492 19.55,5.832 25.18,-1.461 5.6,-7.309 3.43,-18.457 -4.85,-24.949 -8.26,-6.481 -19.53,-5.828 -25.15,1.48 -5.61,7.289 -3.46,18.461 4.82,24.93" /><path
         id="path62"
         style="fill:#ed1c24;fill-opacity:1;fill-rule:nonzero;stroke:none"
         d="m 3332.61,734.34 c 8.28,6.48 19.57,5.832 25.18,-1.469 5.62,-7.289 3.46,-18.461 -4.83,-24.941 -8.26,-6.481 -19.53,-5.828 -25.15,1.461 -5.61,7.3 -3.46,18.461 4.8,24.949" /><path
         id="path64"
         style="fill:#ed1c24;fill-opacity:1;fill-rule:nonzero;stroke:none"
         d="m 3954.68,1112.26 c 9.05,14.52 8.91,29.68 -0.41,45.47 -9.31,15.82 -22.85,29.34 -40.6,40.57 -17.82,11.29 -35.78,17.69 -53.91,19.22 -18.12,1.52 -31.72,-4.93 -40.76,-19.39 -9.06,-14.53 -8.97,-29.72 0.25,-45.48 9.22,-15.81 22.76,-29.34 40.57,-40.62 17.73,-11.21 35.7,-17.66 53.91,-19.28 18.16,-1.6 31.81,4.89 40.95,19.51 z m 26.68,-17.48 c -9.8,-15.68 -24.37,-26.37 -39.14,-33.21 -14.78,-6.84 -31.52,-7.13 -49.45,-4.23 -17.89,2.92 -35.78,10.04 -53.71,21.35 -17.78,11.29 -31.9,24.44 -42.29,39.45 -10.39,15 -17.6,32.8 -17.83,49.24 -0.23,16.45 4.82,32.46 14.51,48.02 9.69,15.47 23.54,26.73 38.38,33.64 14.79,6.92 31.11,6.74 49.04,3.83 17.97,-2.94 35.82,-10.05 53.66,-21.31 17.89,-11.33 31.99,-24.49 42.38,-39.47 10.35,-15.01 15.68,-30.67 15.98,-47 0.29,-16.36 -1.72,-34.63 -11.53,-50.31" /><path
         id="path66"
         style="fill:#ed1c24;fill-opacity:1;fill-rule:nonzero;stroke:none"
         d="m 4038.32,1223.86 -188.54,87.79 15.49,31.59 157.93,-73.04 32.09,66.37 30.86,-15.45 -47.83,-97.26" /><path
         id="path68"
         style="fill:#ed1c24;fill-opacity:1;fill-rule:nonzero;stroke:none"
         d="m 4038.57,1446.34 18.42,56.49 -100.14,5.26 z m 59.41,-86.61 -171.5,132.15 16.48,48.62 218.68,-5.74 -13.7,-39.34 -58,6.31 -24.77,-72.94 45.61,-37.21 -12.8,-31.85" /><path
         id="path70"
         style="fill:#ed1c24;fill-opacity:1;fill-rule:nonzero;stroke:none"
         d="m 3223.71,355.129 -115.45,176.5 29.02,19.422 46.43,-72.16 73.16,46.988 -46.43,72.18 29.03,19.41 115.45,-176.5 -28.56,-19.797 -49.65,75.617 -73.36,-46.269 50.51,-77.098 -30.15,-18.293" /><path
         id="path72"
         style="fill:#ed1c24;fill-opacity:1;fill-rule:nonzero;stroke:none"
         d="m 1694.63,125.34 39.32,169.039 -50.36,12.25 8.21,37.203 139.97,-33.211 -7.91,-37.961 -53.33,13.211 -39.33,-169.031 -36.57,8.5" /><path
         id="path74"
         style="fill:#ed1c24;fill-opacity:1;fill-rule:nonzero;stroke:none"
         d="m 1826.37,97.3594 26.54,209.2926 126.47,-20.113 -2.92,-32.078 -90.93,13.449 -7.13,-54.558 89.36,-13.45 -3.95,-28.461 -90.16,11.071 -7.11,-56.942 91.73,-15.019 -3.95,-31.6291 -127.95,18.4375" /><path
         id="path76"
         style="fill:#ed1c24;fill-opacity:1;fill-rule:nonzero;stroke:none"
         d="m 2488.28,112.652 -7.56,37.899 c 13.24,-11.922 46.17,-23.52 58.73,-20.539 11.21,2.648 36.76,5.929 34.98,34.879 -1.6,26.281 -32.27,28.238 -59.32,27.07 0,0 -18.75,-1.93 -41.29,17.258 -8.53,7.25 -19.12,26.273 -19.2,37.929 -0.31,49.262 36.84,61.262 57.78,65.274 15.64,3 32.91,4.887 56.42,-10.524 l 6.68,-33.226 c -26.87,14.707 -40.11,17.398 -51.95,15.148 -9.75,-1.879 -39.51,-14.578 -31.47,-37.988 8.58,-24.992 26.67,-18.031 45.63,-17.961 52.83,0.18 65.47,-38.058 67.58,-48.969 2.99,-15.632 2.85,-35.211 -7.11,-48.632 -10,-13.399 -21.33,-25.231 -47.85,-30.8677 -19.48,-4.1328 -43.56,4.4297 -62.05,13.2497" /><path
         id="path78"
         style="fill:#ed1c24;fill-opacity:1;fill-rule:nonzero;stroke:none"
         d="m 2012.02,70.9297 6.71,211.2503 35.84,-1.09 -3.9,-91.938 75.13,87.59 39.16,-1.812 -82,-100.309 76.98,-108.0897 -46.05,1.371 -65.08,96.4497 -0.95,-94.4731 -35.84,1.0508" /><path
         id="path80"
         style="fill:#ed1c24;fill-opacity:1;fill-rule:nonzero;stroke:none"
         d="m 2197.46,72.1719 -9.63,206.5471 56.6,2.332 81.6,-170.25 -12.68,174.379 33.56,1.929 10.27,-209.7496 -44.26,-1.668 -91.42,171.1996 9.67,-175.0512 -33.71,0.3321" /><path
         id="path82"
         style="fill:#ed1c24;fill-opacity:1;fill-rule:nonzero;stroke:none"
         d="m 2669.8,129.813 -49.36,203.046 34.87,8.403 20.6,-87.211 48.54,105.461 38.24,8.578 -51.8,-119.539 103.5,-80.301 -44.81,-10.82 -88.92,72.211 23.98,-91.399 -34.84,-8.429" /><path
         id="path84"
         style="fill:#ed1c24;fill-opacity:1;fill-rule:nonzero;stroke:none"
         d="m 2405.31,83.75 -26.82,205.121 39.69,5.141 L 2445,88.9023 2405.31,83.75" /><path
         id="path86"
         style="fill:#ed1c24;fill-opacity:1;fill-rule:nonzero;stroke:none"
         d="m 2858.1,277.582 55.16,22.09 -60.16,80.207 z m -28.36,-101.133 -8.55,216.34 47.89,18.52 135.78,-171.496 -38.97,-14.692 -32.34,48.539 -71.86,-27.75 0.69,-58.859 -32.64,-10.602" /><path
         id="path88"
         style="fill:#ed1c24;fill-opacity:1;fill-rule:nonzero;stroke:none"
         d="m 215.938,1437.47 194.648,73.25 11.727,-33.15 -162.704,-61.72 24.981,-69.38 -32.637,-11.22 -36.015,102.22" /><path
         id="path90"
         style="fill:#ed1c24;fill-opacity:1;fill-rule:nonzero;stroke:none"
         d="m 269.727,1299.82 189.726,84.27 13.594,-30.84 -189.719,-84.28 -13.601,30.85" /><path
         id="path92"
         style="fill:#ed1c24;fill-opacity:1;fill-rule:nonzero;stroke:none"
         d="m 317.402,1200.54 180.118,101.54 27.558,-49.49 -115.32,-149.5 150.008,89.8 16.836,-29.09 -182.664,-103.58 -21.438,38.78 111.758,158.69 -151.973,-87.41 -14.883,30.26" /><path
         id="path94"
         style="fill:#ed1c24;fill-opacity:1;fill-rule:nonzero;stroke:none"
         d="M 428.105,1006.43 600,1125.22 l 20.332,-29.53 -74.043,-50.48 112.727,-5.57 21.707,-32.65 -127.051,3.59 -41.602,-126.029 -26.152,37.961 39.277,109.518 -76.738,-55.132 -20.352,29.532" /><path
         id="path96"
         style="fill:#ed1c24;fill-opacity:1;fill-rule:nonzero;stroke:none"
         d="m 791.641,736.16 15.39,-16.269 c 11.309,-11.43 39.082,-38.489 67.227,-8.61 22.051,23.41 -4.348,48.18 -12.031,55.989 l -23.055,20.351 z m -96.504,-52.629 144.59,152.559 53.496,-50.121 c 15.168,-15.18 22.988,-29.688 26.054,-39.258 3.078,-9.582 3.34,-19.051 0.801,-28.441 -2.551,-9.36 -8.469,-21.688 -17.09,-31.122 C 886.426,668.969 866.086,663 846.68,664.16 c -19.383,1.219 -43.086,17.242 -63.692,33.762 l -12.898,12.898 -51.203,-51.039 -23.75,23.75" /><path
         id="path98"
         style="fill:#ed1c24;fill-opacity:1;fill-rule:nonzero;stroke:none"
         d="m 838.77,555.922 129.804,161.07 31.133,-25.14 L 869.922,530.77 838.77,555.922" /><path
         id="path100"
         style="fill:#ed1c24;fill-opacity:1;fill-rule:nonzero;stroke:none"
         d="m 922.246,492.941 117.874,169.469 45.11,-30.89 -35.93,-183.79 96.97,142.43 30.53,-19.668 -117.95,-172.562 -42.11,30.14 32.56,191.93 -98.902,-146.621 -28.152,19.562" /><path
         id="path102"
         style="fill:#ed1c24;fill-opacity:1;fill-rule:nonzero;stroke:none"
         d="m 1246.13,320.941 c -16.74,-11.402 -54.15,-5.699 -73.57,4.59 -30.75,16.27 -44.88,41.278 -47.04,67.059 -2.16,25.769 5.28,51.832 22.3,78.18 11.14,17.242 24.07,30.82 38.79,40.812 14.72,10 30.52,15.078 47.41,15.25 16.88,0.16 30.75,-2.57 50.95,-15.691 17.05,-11.039 34.2,-30.989 31.15,-59 l -21.35,-34.321 c 4.84,30.879 -16.65,56.899 -22.27,60.551 -18.26,11.82 -36.34,17.449 -54.86,11.758 -17.49,-5.367 -27.5,-19.848 -39.55,-38.477 -13.16,-20.343 -19.18,-44.222 -17.46,-62.343 1.71,-18.188 8.52,-30.11 23.87,-36.688 17.45,-7.48 26.72,-9.262 34.56,-8.551 l 33.85,63.41 32.41,-18.519 -39.19,-68.02" /><path
         id="path104"
         style="fill:#ed1c24;fill-opacity:1;fill-rule:nonzero;stroke:none"
         d="m 1281.53,292.551 16.26,35.058 c 3.67,-17.429 23.4,-46.207 35.3,-51.218 10.62,-4.481 33.18,-16.899 48.83,7.519 14.21,22.16 -9.39,41.84 -31.92,56.86 0,0 -16.29,9.492 -23.16,38.289 -2.61,10.882 0.05,32.48 6.87,41.953 28.81,39.957 65.89,27.73 85.17,18.609 14.39,-6.789 29.45,-15.461 39.35,-41.781 l -14.22,-30.77 c -13.02,27.739 -22.12,37.731 -33,42.879 -8.99,4.25 -40.5,11.543 -47.83,-12.109 -7.81,-25.231 10.9,-30.27 26.25,-41.41 42.76,-31.028 30.41,-69.36 25.67,-79.418 -6.81,-14.371 -18.46,-30.114 -34.44,-35.051 -15.97,-4.941 -32.1,-7.801 -56.83,3.301 -18.17,8.148 -32.56,29.258 -42.3,47.289" /><path
         id="path106"
         style="fill:#ed1c24;fill-opacity:1;fill-rule:nonzero;stroke:none"
         d="m 610,805.98 c 11.711,-12.48 26.211,-16.421 43.516,-11.808 17.304,4.59 33.437,13.808 48.379,27.637 15.007,13.863 25.41,29.203 31.171,45.972 5.782,16.801 2.832,31.41 -8.828,43.871 -11.699,12.477 -26.211,16.477 -43.468,11.95 -17.274,-4.5 -33.407,-13.711 -48.426,-27.59 -14.922,-13.821 -25.34,-29.133 -31.211,-45.961 -5.86,-16.809 -2.91,-31.5 8.867,-44.071 z m -23.027,-20.64 c -12.637,13.5 -19.383,30.191 -22.403,46.019 -3.007,15.86 0.703,31.832 7.735,48.039 7.05,16.204 18.105,31.274 33.164,45.231 15,13.851 30.898,23.703 47.715,29.562 16.796,5.829 35.5,7.891 51.25,3.711 15.761,-4.203 29.843,-13.273 42.375,-26.64 12.468,-13.332 19.929,-29.481 23.004,-45.41 3.07,-15.891 -0.965,-31.332 -8.028,-47.571 -7.078,-16.25 -18.101,-31.289 -33.094,-45.172 -15.07,-13.929 -30.996,-23.769 -47.773,-29.617 -16.797,-5.793 -33.008,-6.66 -48.672,-2.57 -15.676,4.098 -32.637,10.93 -45.273,24.418" /><path
         id="path108"
         style="fill:#ed1c24;fill-opacity:1;fill-rule:nonzero;stroke:none"
         d="m 760.93,979.34 c 6.902,-7.938 6.824,-19.238 -0.176,-25.219 -7.004,-5.992 -18.266,-4.391 -25.156,3.551 -6.899,7.93 -6.828,19.207 0.183,25.187 6.992,5.993 18.262,4.411 25.149,-3.519" /><path
         id="path110"
         style="fill:#ed1c24;fill-opacity:1;fill-rule:nonzero;stroke:none"
         d="m 799.824,933.379 c 6.906,-7.938 6.817,-19.238 -0.176,-25.219 -6.992,-5.98 -18.261,-4.39 -25.156,3.551 -6.894,7.93 -6.816,19.219 0.176,25.187 7.004,5.993 18.262,4.411 25.156,-3.519" /><path
         id="path112"
         style="fill:#fff200;fill-opacity:1;fill-rule:nonzero;stroke:none"
         d="M 1581.5,2109.57 V 1975.2 h 528.85 v -840.96 h 130.06 v 840.96 h 528.84 v 134.37 H 1581.5" /><path
         id="path114"
         style="fill:#fff200;fill-opacity:1;fill-rule:nonzero;stroke:none"
         d="m 2372.61,1843 h 130.04 v -314.29 h 130.06 V 1843 h 136.54 V 1136.41 H 2632.71 V 1390 h -130.06 v -253.59 l -130.04,-1.62 V 1843" /><path
         id="path116"
         style="fill:#fff200;fill-opacity:1;fill-rule:nonzero;stroke:none"
         d="m 1984.38,1773.39 c 0,-38.3 -31.04,-69.36 -69.36,-69.36 -38.3,0 -69.36,31.06 -69.36,69.36 0,38.31 31.06,69.36 69.36,69.36 38.32,0 69.36,-31.05 69.36,-69.36" /><path
         id="path118"
         style="fill:#fff200;fill-opacity:1;fill-rule:nonzero;stroke:none"
         d="m 1980.29,1390 h -132.2 v 190.73 h 132.2 V 1390" /><path
         id="path120"
         style="fill:#fff200;fill-opacity:1;fill-rule:nonzero;stroke:none"
         d="m 1719.12,1264.29 h 259.01 V 1128.82 H 1581.48 V 1843 h 137.64 v -578.71" /></g></g></svg>