<?xml version="1.0" encoding="UTF-8" standalone="no"?>
<svg
   xmlns:dc="http://purl.org/dc/elements/1.1/"
   xmlns:cc="http://creativecommons.org/ns#"
   xmlns:rdf="http://www.w3.org/1999/02/22-rdf-syntax-ns#"
   xmlns:svg="http://www.w3.org/2000/svg"
   xmlns="http://www.w3.org/2000/svg"
   viewBox="0 0 470.16 426.35999"
   height="426.35999"
   width="470.16"
   xml:space="preserve"
   id="svg2"
   version="1.1"><metadata
     id="metadata8"><rdf:RDF><cc:Work
         rdf:about=""><dc:format>image/svg+xml</dc:format><dc:type
           rdf:resource="http://purl.org/dc/dcmitype/StillImage" /></cc:Work></rdf:RDF></metadata><defs
     id="defs6" /><g
     transform="matrix(1.3333333,0,0,-1.3333333,0,426.36)"
     id="g10"><g
       transform="scale(0.1)"
       id="g12"><path
         id="path14"
         style="fill:#a3d71e;fill-opacity:1;fill-rule:nonzero;stroke:none"
         d="M 3152.68,1598.86 C 3152.68,740.699 2456.99,45 1598.83,45 740.664,45 45,740.699 45,1598.86 c 0,858.15 695.664,1553.83 1553.83,1553.83 858.16,0 1553.85,-695.68 1553.85,-1553.83" /><path
         id="path16"
         style="fill:#231f20;fill-opacity:1;fill-rule:nonzero;stroke:none"
         d="M 1598.83,3197.69 C 717.227,3197.69 0,2480.45 0,1598.86 0,717.25 717.227,0 1598.83,0 c 881.61,0 1598.85,717.25 1598.85,1598.86 0,881.59 -717.24,1598.83 -1598.85,1598.83 z M 3107.68,1598.86 C 3107.68,766.871 2430.81,90 1598.83,90 766.855,90 90,766.871 90,1598.86 c 0,831.98 676.855,1508.83 1508.83,1508.83 831.98,0 1508.85,-676.85 1508.85,-1508.83" /><path
         id="path18"
         style="fill:#231f20;fill-opacity:1;fill-rule:nonzero;stroke:none"
         d="m 1075.29,435.371 33.75,-13.832 -49.69,-121.25 59.51,-24.387 -11.65,-28.422 -93.26,38.219 61.34,149.672" /><path
         id="path20"
         style="fill:#231f20;fill-opacity:1;fill-rule:nonzero;stroke:none"
         d="m 1219.1,381.352 -50.49,-153.672 -34.65,11.379 50.47,153.671 34.67,-11.378" /><path
         id="path22"
         style="fill:#231f20;fill-opacity:1;fill-rule:nonzero;stroke:none"
         d="m 1204.4,215.43 37.05,157.461 41.58,-9.77 19.14,-65.41 c 5.45,-18.781 9.94,-40.559 13.01,-60.02 l 0.46,-0.109 c 2.8,21.289 7.09,42.727 12.7,66.539 l 10.76,45.801 32.72,-7.692 -37.05,-157.48 -37.38,8.801 -19.34,68.66 c -5.34,19.25 -11.14,41.809 -14.26,62.051 l -0.94,0.207 c -3.79,-21.309 -8.53,-43.61 -14.58,-69.309 l -11.16,-47.43 -32.71,7.7" /><path
         id="path24"
         style="fill:#231f20;fill-opacity:1;fill-rule:nonzero;stroke:none"
         d="m 1391.01,339.34 35.98,-4.258 -8.39,-71.023 0.48,-0.039 c 4.3,5.781 8.79,11.039 13.28,16.312 l 42.52,49.098 44.8,-5.289 -61.21,-62.11 44.87,-98.812 -42.19,4.98 -31.36,74.012 -15.57,-15.301 -6.19,-52.422 -35.99,4.242 18.97,160.61" /><path
         id="path26"
         style="fill:#231f20;fill-opacity:1;fill-rule:nonzero;stroke:none"
         d="m 1617.56,333.422 c -9.36,-0.082 -16.13,7.297 -16.21,15.937 -0.09,9.352 6.81,16.379 16.18,16.461 8.88,0.082 15.91,-6.82 15.99,-16.191 0.06,-8.629 -6.59,-16.129 -15.71,-16.207 z m -22.99,-144.961 c 24.71,0.211 38.45,23.609 38.16,55.289 -0.23,29.039 -14.14,53.91 -39.34,53.672 -24.96,-0.192 -38.92,-24.801 -38.66,-55.063 0.26,-30.488 15.1,-54.121 39.59,-53.898 z m -25.5,144.531 c -9.11,-0.062 -16.37,7.297 -16.45,15.949 -0.08,9.36 7.05,16.391 16.42,16.469 8.64,0.082 15.67,-6.84 15.74,-16.191 0.07,-8.629 -6.59,-16.149 -15.46,-16.227 z m 24.06,-173.582 c -47.77,-0.41 -76.41,35.57 -76.8,81.66 -0.41,48.5 30.23,85.02 78.02,85.41 49.67,0.43 77.13,-36.539 77.51,-81.191 0.45,-53.301 -31.2,-85.488 -78.48,-85.898 l -0.25,0.019" /><path
         id="path28"
         style="fill:#231f20;fill-opacity:1;fill-rule:nonzero;stroke:none"
         d="m 1729.23,254.32 c 3.17,-0.379 7.02,-0.199 12.27,0.371 19.32,2.129 30.18,13.219 28.4,29.45 -1.62,14.789 -12.61,22.5 -30.98,20.488 -7.4,-0.797 -12.36,-1.84 -14.9,-2.828 z m -44.02,69.039 c 11,3.141 26.59,6.293 48.75,8.731 22.45,2.461 39.13,-0.059 50.84,-7.699 11.12,-6.731 19.26,-19.371 20.99,-35.11 1.76,-15.98 -1.79,-29.91 -10.36,-39.769 -11.15,-12.813 -29.16,-20.352 -50.63,-22.692 -4.77,-0.531 -9.09,-0.769 -12.51,-0.41 l 6.33,-57.738 -36,-3.942 -17.41,158.629" /><path
         id="path30"
         style="fill:#231f20;fill-opacity:1;fill-rule:nonzero;stroke:none"
         d="m 1853.15,349.082 29.91,-158.941 -35.85,-6.739 -29.91,158.918 35.85,6.762" /><path
         id="path32"
         style="fill:#231f20;fill-opacity:1;fill-rule:nonzero;stroke:none"
         d="m 1920.23,196.66 -43.49,155.84 41.16,11.5 48.32,-48.078 c 13.83,-13.852 28.27,-30.742 40.34,-46.332 l 0.47,0.14 c -7.83,20 -14.39,40.84 -20.98,64.43 l -12.65,45.309 32.37,9.051 43.5,-155.86 -36.99,-10.32 -50.08,50.82 c -13.96,14.301 -29.92,31.27 -42.42,47.481 l -0.92,-0.25 c 6.96,-20.493 13.55,-42.321 20.65,-67.77 l 13.11,-46.941 -32.39,-9.02" /><path
         id="path34"
         style="fill:#231f20;fill-opacity:1;fill-rule:nonzero;stroke:none"
         d="m 2207.08,303.648 c -8.95,-7.867 -26.68,-20.918 -46.43,-29.097 -27.28,-11.289 -49.87,-12.582 -69.04,-5.18 -18.94,7.5 -34.57,23.91 -43.65,45.859 -20.34,49.79 4.08,93.149 53.1,113.418 19.3,7.993 35.73,10.372 44.43,10.082 l 4.18,-30.23 c -9.76,0.371 -20.85,-1.102 -37.26,-7.891 -28.18,-11.668 -43.08,-36.527 -29.7,-68.91 12.86,-31.078 39.81,-40.961 67.54,-29.488 7.54,3.121 13.39,6.578 15.6,8.789 l -13.04,31.5 -23.06,-9.531 -10.93,26.39 55.68,23.039 32.58,-78.75" /><path
         id="path36"
         style="fill:#231f20;fill-opacity:1;fill-rule:nonzero;stroke:none"
         d="m 2543.53,2520.99 c 12.85,14.61 28.35,32 44.69,49.25 l -0.35,0.33 c -18.04,-11.35 -38.77,-23.44 -56.34,-32.92 l -57.71,-32.27 -20.73,19.66 30.4,57.17 c 9.37,17.57 21.23,37.75 32.97,56.07 l -0.35,0.33 c -15.55,-15.36 -33.42,-32.81 -47.99,-46.79 l -44.55,-42.44 -24.56,23.28 118.8,110.3 35.35,-33.52 -25.81,-50.26 c -8.88,-17.05 -19.27,-35 -29.7,-51.23 l 0.69,-0.66 c 16.02,10.62 34.55,22.15 51.1,31.59 l 49.36,27.3 34.84,-33.04 -105.03,-123.35 -25.77,24.44 40.69,46.76" /><path
         id="path38"
         style="fill:#231f20;fill-opacity:1;fill-rule:nonzero;stroke:none"
         d="m 2652.95,2403.64 20.85,29.07 c 5.93,8.01 13.81,17.8 19.71,25.46 l -0.44,0.56 c -8.9,-4.2 -20.17,-9.66 -29.03,-13.53 l -33.1,-13.38 z m -46.83,15.5 -39.66,-16.68 -23.35,29.88 157.92,60.64 29.4,-37.63 -96.44,-139.33 -24.23,31.02 25.03,35.41 -28.67,36.69" /><path
         id="path40"
         style="fill:#231f20;fill-opacity:1;fill-rule:nonzero;stroke:none"
         d="m 2649.24,2292.86 139.65,81.61 21.55,-36.89 -34.22,-58.91 c -9.87,-16.88 -22.56,-35.13 -34.54,-50.76 l 0.23,-0.41 c 17.36,12.64 35.84,24.28 56.99,36.63 l 40.6,23.73 16.95,-29.01 -139.64,-81.61 -19.39,33.17 36.45,61.3 c 10.28,17.12 22.64,36.87 35.14,53.06 l -0.47,0.82 c -18.05,-11.92 -37.5,-23.84 -60.29,-37.16 l -42.05,-24.58 -16.96,29.01" /><path
         id="path42"
         style="fill:#231f20;fill-opacity:1;fill-rule:nonzero;stroke:none"
         d="m 2827.31,2097.28 27.8,22.52 c 7.84,6.13 18.03,13.51 25.75,19.34 l -0.27,0.66 c -9.71,-1.71 -22.03,-3.99 -31.58,-5.37 l -35.47,-4.14 z m -41.07,27.34 -42.67,-5.58 -14.61,35.01 168.37,16.67 18.4,-44.09 -129.91,-108.83 -15.17,36.34 33.53,27.51 -17.94,42.97" /><path
         id="path44"
         style="fill:#231f20;fill-opacity:1;fill-rule:nonzero;stroke:none"
         d="m 2835.35,1868.66 c -6.68,9.86 -17.41,29.07 -23.06,49.66 -7.81,28.48 -6.27,51.05 3.45,69.16 9.78,17.86 27.99,31.3 50.91,37.59 51.92,13.99 91.9,-15.63 105.92,-66.79 5.53,-20.14 5.83,-36.72 4.45,-45.32 l -30.51,-0.4 c 1.61,9.65 1.52,20.83 -3.17,37.96 -8.06,29.4 -30.88,47.29 -64.68,38.02 -32.41,-8.89 -45.57,-34.39 -37.64,-63.33 2.16,-7.87 4.86,-14.1 6.77,-16.56 l 32.87,9.01 -6.59,24.07 27.54,7.55 15.93,-58.09 -82.19,-22.53" /><path
         id="path46"
         style="fill:#231f20;fill-opacity:1;fill-rule:nonzero;stroke:none"
         d="m 2915.94,1747.51 -8.76,58.9 -37.99,-5.65 9.79,-65.78 -29.68,-4.42 -15.17,101.87 160.04,23.81 14.67,-98.53 -29.69,-4.41 -9.29,62.44 -33.24,-4.95 8.76,-58.89 -29.44,-4.39" /><path
         id="path48"
         style="fill:#231f20;fill-opacity:1;fill-rule:nonzero;stroke:none"
         d="m 2917.57,1563.57 c 19.44,0.98 42.71,1.99 66.47,2.29 l -0.01,0.48 c -20.7,5.02 -43.83,11.45 -62.87,17.44 l -63.38,18.88 -0.37,28.57 62.2,18.07 c 19.13,5.53 41.86,11.1 63.17,15.45 v 0.48 c -21.85,0.45 -46.82,1.09 -67,1.79 l -61.49,2.34 -0.43,33.84 161.91,-8.25 0.62,-48.73 -54.05,-16.54 c -18.41,-5.51 -38.51,-10.56 -57.43,-14.41 l 0.01,-0.96 c 18.78,-4.09 39.97,-9.33 58.29,-14.63 l 53.98,-16.35 0.61,-48.01 -161.67,-10.7 -0.45,35.52 61.89,3.43" /><path
         id="path50"
         style="fill:#231f20;fill-opacity:1;fill-rule:nonzero;stroke:none"
         d="m 2907.47,1386.95 7.31,59.05 -38.09,4.71 -8.17,-65.94 -29.76,3.67 12.65,102.14 160.48,-19.87 -12.24,-98.8 -29.76,3.68 7.76,62.61 -33.33,4.12 -7.33,-59.04 -29.52,3.67" /><path
         id="path52"
         style="fill:#231f20;fill-opacity:1;fill-rule:nonzero;stroke:none"
         d="m 2833.79,1357.5 156.91,-39.2 -10.35,-41.44 -65.64,-18.23 c -18.86,-5.19 -40.68,-9.39 -60.19,-12.19 l -0.11,-0.46 c 21.24,-3.07 42.6,-7.66 66.35,-13.6 l 45.64,-11.4 -8.15,-32.6 -156.91,39.2 9.29,37.24 68.91,18.42 c 19.33,5.06 41.95,10.55 62.21,13.4 l 0.23,0.92 c -21.23,4.08 -43.46,9.14 -69.07,15.53 l -47.27,11.81 8.15,32.6" /><path
         id="path54"
         style="fill:#231f20;fill-opacity:1;fill-rule:nonzero;stroke:none"
         d="m 2899.85,1115.41 15.73,40.74 28.67,-11.05 -44.79,-116 -28.66,11.08 15.9,41.19 -122.25,47.2 13.15,34.03 122.25,-47.19" /><path
         id="path56"
         style="fill:#231f20;fill-opacity:1;fill-rule:nonzero;stroke:none"
         d="m 538.926,2385.27 c -16.426,10.4 -36.035,22.96 -55.606,36.39 l -0.273,-0.41 c 14.023,-16.01 29.219,-34.57 41.328,-50.43 l 40.918,-51.91 -16.133,-23.54 -61.23,21.02 c -18.809,6.5 -40.606,15.02 -60.508,23.73 l -0.274,-0.39 c 17.598,-12.94 37.637,-27.84 53.731,-40.02 l 48.887,-37.3 -19.121,-27.89 -127.559,99.92 27.539,40.17 53.672,-17.59 c 18.242,-6.09 37.558,-13.53 55.234,-21.27 l 0.547,0.78 c -13.008,14.16 -27.305,30.64 -39.199,45.5 l -34.727,44.43 27.149,39.58 138.262,-84.3 -20.079,-29.29 -52.558,32.82" /><path
         id="path58"
         style="fill:#231f20;fill-opacity:1;fill-rule:nonzero;stroke:none"
         d="m 537.285,2540.05 122.403,-105.81 -23.887,-27.6 -122.363,105.81 23.847,27.6" /><path
         id="path60"
         style="fill:#231f20;fill-opacity:1;fill-rule:nonzero;stroke:none"
         d="m 571.23,2577.88 25.997,25.6 91.992,-93.4 45.84,45.16 21.562,-21.9 -71.855,-70.76 -113.536,115.3" /><path
         id="path62"
         style="fill:#231f20;fill-opacity:1;fill-rule:nonzero;stroke:none"
         d="m 700.02,2696.41 28.242,23.11 64.765,-79.16 c 29.161,-35.69 22.246,-62.11 -5.058,-84.46 -6.699,-5.47 -16.153,-11.35 -23.242,-14.04 l -15.547,25.43 c 4.98,1.89 10.742,5.07 16.328,9.63 11.894,9.72 14.922,21.19 -0.899,40.53 l -64.589,78.96" /><path
         id="path64"
         style="fill:#231f20;fill-opacity:1;fill-rule:nonzero;stroke:none"
         d="m 903.711,2677.7 c 20.762,13.42 19.805,40.53 2.598,67.13 -15.743,24.39 -40.801,37.92 -61.954,24.25 -20.976,-13.56 -19.57,-41.8 -3.144,-67.2 16.543,-25.59 41.738,-37.61 62.285,-24.32 z m -58.223,134.69 c -7.851,-5.08 -17.539,-2.48 -22.226,4.78 -5.098,7.85 -3.028,17.48 4.843,22.56 7.461,4.82 17.09,2.75 22.168,-5.1 4.688,-7.26 3.086,-17.15 -4.57,-22.11 z m 72.578,-159.99 c -40.117,-25.93 -83.574,-10.87 -108.593,27.82 -26.309,40.72 -20,87.97 20.117,113.89 41.719,26.97 84.687,10.46 108.926,-27.04 28.925,-44.74 19.453,-88.88 -20.254,-114.55 z m -113.281,133.68 c -7.656,-4.96 -17.754,-2.62 -22.441,4.65 -5.078,7.85 -2.813,17.59 5.039,22.68 7.265,4.7 16.894,2.63 21.972,-5.23 4.688,-7.26 3.086,-17.16 -4.375,-21.97 l -0.195,-0.13" /><path
         id="path66"
         style="fill:#231f20;fill-opacity:1;fill-rule:nonzero;stroke:none"
         d="m 323.867,1232.11 18.504,-56.58 36.508,11.93 -20.676,63.2 28.527,9.34 32.008,-97.89 -153.765,-50.29 -30.969,94.68 28.516,9.32 19.628,-60 31.934,10.45 -18.508,56.58 28.293,9.26" /><path
         id="path68"
         style="fill:#231f20;fill-opacity:1;fill-rule:nonzero;stroke:none"
         d="m 378.098,1290.12 -158.723,-31.23 -8.242,41.91 51.68,44.41 c 14.863,12.7 32.839,25.79 49.304,36.61 l -0.097,0.46 c -20.536,-6.23 -41.832,-11.17 -65.848,-15.87 l -46.16,-9.09 -6.489,32.97 158.723,31.21 7.422,-37.67 -54.563,-45.96 c -15.339,-12.79 -33.503,-27.38 -50.632,-38.57 l 0.183,-0.94 c 20.969,5.35 43.254,10.21 69.153,15.31 l 47.8,9.4 6.489,-32.95" /><path
         id="path70"
         style="fill:#231f20;fill-opacity:1;fill-rule:nonzero;stroke:none"
         d="m 273.008,1549.97 4.394,-59.37 38.301,2.84 -4.922,66.31 29.922,2.21 7.61,-102.68 -161.321,-11.96 -7.363,99.33 29.922,2.23 4.66,-62.96 33.516,2.48 -4.407,59.37 29.688,2.2" /><path
         id="path72"
         style="fill:#231f20;fill-opacity:1;fill-rule:nonzero;stroke:none"
         d="m 251.602,1632.59 0.554,14.39 c 0.703,18.22 -7.984,29.36 -22.136,29.9 -14.629,0.57 -22.696,-9.21 -23.34,-25.99 -0.34,-8.87 -0.059,-13.93 0.554,-16.59 z m -70.696,-33.53 c -1.707,11.83 -2.476,29.15 -1.718,48.81 0.929,23.97 5.175,40.62 14.972,51.76 8.047,9.54 19.531,14.39 34.395,13.81 20.371,-0.79 33.957,-15.96 38.457,-30.06 l 0.722,-0.03 c 4.993,11.1 15.782,16.92 30.801,20.42 18.66,4.32 39.942,8.3 46.301,11.19 l -1.445,-37.41 c -4.653,-2.22 -17.993,-5.8 -38.071,-9.59 -20.554,-3.77 -26.101,-10.5 -26.922,-25.6 l -0.418,-10.79 63.543,-2.46 -1.394,-36.21 -159.223,6.16" /><path
         id="path74"
         style="fill:#231f20;fill-opacity:1;fill-rule:nonzero;stroke:none"
         d="m 362.285,1874.68 c 1.934,-11.77 3.633,-33.71 0.117,-54.77 -4.843,-29.13 -15.703,-48.97 -32.121,-61.32 -16.375,-12.12 -38.551,-16.69 -61.992,-12.78 -52.996,9.06 -76.875,52.71 -68.152,105.03 3.437,20.61 10.105,35.81 14.961,43.02 l 27.863,-12.43 c -5.488,-8.09 -10.109,-18.27 -13.027,-35.79 -5.012,-30.08 8.211,-55.87 42.769,-61.64 33.149,-5.52 55.813,12.11 60.742,41.71 1.34,8.05 1.496,14.83 0.785,17.87 l -33.617,5.6 -4.109,-24.62 -28.176,4.71 9.914,59.43 84.043,-14.02" /><path
         id="path76"
         style="fill:#231f20;fill-opacity:1;fill-rule:nonzero;stroke:none"
         d="m 232.742,1984.43 156.223,-42.04 -9.485,-35.25 -156.218,42.05 9.48,35.24" /><path
         id="path78"
         style="fill:#231f20;fill-opacity:1;fill-rule:nonzero;stroke:none"
         d="m 1284.24,1180.12 h -63.65 v 310.68 h 63.65 v -310.68" /><path
         id="path80"
         style="fill:#231f20;fill-opacity:1;fill-rule:nonzero;stroke:none"
         d="m 1267.34,1180.12 h 140.92 v 63.67 h -140.92 v -63.67" /><path
         id="path82"
         style="fill:#231f20;fill-opacity:1;fill-rule:nonzero;stroke:none"
         d="m 1530.63,1388.69 h -63.68 v -209.24 h 63.68 v 209.24" /><path
         id="path84"
         style="fill:#231f20;fill-opacity:1;fill-rule:nonzero;stroke:none"
         d="m 1837.01,1490.8 h -63.63 v -311.35 h 63.63 v 311.35" /><path
         id="path86"
         style="fill:#231f20;fill-opacity:1;fill-rule:nonzero;stroke:none"
         d="m 1993.22,1488.82 h -63.67 v -311.38 h 63.67 v 311.38" /><path
         id="path88"
         style="fill:#231f20;fill-opacity:1;fill-rule:nonzero;stroke:none"
         d="m 1949.1,1295.51 h -118.69 v 64 h 118.69 v -64" /><path
         id="path90"
         style="fill:#231f20;fill-opacity:1;fill-rule:nonzero;stroke:none"
         d="m 1694.22,1524.31 h -63.67 v -344.86 h 63.67 v 344.86" /><path
         id="path92"
         style="fill:#231f20;fill-opacity:1;fill-rule:nonzero;stroke:none"
         d="m 1220.25,1552.16 h 773.29 v -39.8 h -773.29 v 39.8" /><path
         id="path94"
         style="fill:#231f20;fill-opacity:1;fill-rule:nonzero;stroke:none"
         d="m 1530.9,1442.73 c 0,17.75 -14.38,32.15 -32.11,32.15 -17.74,0 -32.11,-14.4 -32.11,-32.15 0,-17.73 14.37,-32.14 32.11,-32.14 17.73,0 32.11,14.41 32.11,32.14" /><path
         id="path96"
         style="fill:#231f20;fill-opacity:1;fill-rule:nonzero;stroke:none"
         d="M 1224.2,944.121 V 974 l 29.64,24.359 c 51.03,41.561 75.66,65.271 76.02,89.941 0,17.21 -11.06,30.86 -37.83,30.86 -20,0 -37.48,-9.1 -49.63,-17.23 l -15.33,35.08 c 17.14,12.01 44.62,21.76 75.66,21.76 52.83,0 81.38,-27.93 81.38,-66.25 0,-35.39 -27.84,-63.65 -61.75,-90.92 l -21.4,-16.229 v -0.66 h 87.8 v -40.59 H 1224.2" /><path
         id="path98"
         style="fill:#231f20;fill-opacity:1;fill-rule:nonzero;stroke:none"
         d="m 1506.19,977.891 c 21.06,0 32.47,24.039 32.47,72.089 0,46.76 -11.06,71.45 -32.84,71.45 -20.33,0 -33.18,-23.72 -33.18,-71.45 -0.37,-48.71 12.48,-72.089 33.18,-72.089 z m -0.72,-37.34 c -59.97,0 -86.38,49.039 -86.74,108.789 0,61.36 28.19,109.43 88.16,109.43 61.75,0 86.38,-50.33 86.38,-108.13 0,-64.941 -28.91,-110.089 -87.45,-110.089 h -0.35" /><path
         id="path100"
         style="fill:#231f20;fill-opacity:1;fill-rule:nonzero;stroke:none"
         d="m 1704.29,977.891 c 21.05,0 32.47,24.039 32.47,72.089 0,46.76 -11.07,71.45 -32.84,71.45 -20.34,0 -33.19,-23.72 -33.19,-71.45 -0.37,-48.71 12.49,-72.089 33.19,-72.089 z m -0.72,-37.34 c -59.98,0 -86.38,49.039 -86.74,108.789 0,61.36 28.19,109.43 88.17,109.43 61.74,0 86.38,-50.33 86.38,-108.13 0,-64.941 -28.91,-110.089 -87.46,-110.089 h -0.35" /><path
         id="path102"
         style="fill:#231f20;fill-opacity:1;fill-rule:nonzero;stroke:none"
         d="m 1899.53,1122.73 c -18.21,0 -31.78,-14.94 -31.78,-37.03 0,-18.18 11.08,-33.77 32.84,-33.77 15.36,0 25.35,6.18 30.71,13.64 1.78,3.24 2.5,6.5 2.5,12.67 0.34,22.4 -9.29,44.49 -33.92,44.49 z m -64.61,-142.89 c 7.14,-0.969 12.85,-0.641 23.56,0 16.77,0.652 33.54,5.199 46.04,12.992 15.35,9.098 25.34,23.048 29.28,38.968 l -0.72,0.33 c -10.71,-9.75 -25.71,-15.26 -47.12,-15.26 -39.26,0 -72.1,24.67 -72.1,65.9 0,41.25 36.41,76 87.45,76 59.6,0 87.81,-41.56 87.81,-90.94 0,-44.14 -15.35,-75.971 -40.33,-97.092 -22.15,-18.488 -52.83,-28.238 -89.24,-29.527 -8.92,-0.66 -18.2,-0.332 -24.63,0 v 38.629" /><path
         id="path104"
         style="fill:#837f74;fill-opacity:1;fill-rule:nonzero;stroke:none"
         d="M 1594.71,419.781 C 258.047,366.441 154.91,1650.14 1344.72,1983.13 c 0,0 -596.419,316.68 -266.42,721.19 302.25,370.47 892.25,232.97 1087.6,38.2 48.51,-47.77 180.79,-182.25 37.49,-255 -187.39,-83.77 -210.73,117.11 -284.4,182.99 -187.39,167.55 -554.13,94.04 -658.46,-72.03 -239.14,-378.69 540.87,-538.69 530.86,-682.02 -10.01,-143.33 -1153.324,-260.01 -930.003,-898.34 173.283,-495.288 1256.663,-378.339 2606.733,-9.9 -0.02,0 -1035.81,-555.001 -1873.41,-588.439" /><path
         id="path106"
         style="fill:#f9df0f;fill-opacity:1;fill-rule:nonzero;stroke:none"
         d="M 1648.05,513.121 C 311.387,459.781 214.727,1716.46 1398.06,2076.46 c 0,0 -596.419,316.69 -266.42,721.19 302.25,370.48 892.25,232.98 1087.6,38.21 48.51,-47.77 180.79,-182.26 37.49,-255 -187.39,-83.79 -210.73,117.11 -284.4,182.98 -187.39,167.55 -554.13,94.05 -658.46,-72.02 -239.14,-378.69 540.87,-538.69 530.86,-682.03 -10.01,-143.33 -1153.324,-250 -930.003,-888.33 173.283,-495.312 1256.663,-388.339 2606.733,-19.9 0,0 -1035.82,-555.001 -1873.41,-588.439" /><path
         id="path108"
         style="fill:none;stroke:#231f20;stroke-width:20;stroke-linecap:butt;stroke-linejoin:miter;stroke-miterlimit:4;stroke-dasharray:none;stroke-opacity:1"
         d="M 1648.05,513.121 C 311.387,459.781 214.727,1716.46 1398.06,2076.46 c 0,0 -596.419,316.69 -266.42,721.19 302.25,370.48 892.25,232.98 1087.6,38.21 48.51,-47.77 180.79,-182.26 37.49,-255 -187.39,-83.79 -210.73,117.11 -284.4,182.98 -187.39,167.55 -554.13,94.05 -658.46,-72.02 -239.14,-378.69 540.87,-538.69 530.86,-682.03 -10.01,-143.33 -1153.324,-250 -930.003,-888.33 173.283,-495.312 1256.663,-388.339 2606.733,-19.9 0,0 -1035.82,-555.001 -1873.41,-588.439 z" /></g></g></svg>