<svg id="Layer_1" data-name="Layer 1" xmlns="http://www.w3.org/2000/svg" xmlns:xlink="http://www.w3.org/1999/xlink" viewBox="0 0 372.43 372.43"><defs><style>.cls-1{fill:none;}.cls-2{clip-path:url(#clip-path);}.cls-3{fill:url(#linear-gradient);}.cls-4{clip-path:url(#clip-path-2);}.cls-5{fill:url(#linear-gradient-2);}.cls-6{clip-path:url(#clip-path-3);}.cls-7{fill:url(#linear-gradient-3);}.cls-8{clip-path:url(#clip-path-4);}.cls-9{fill:url(#linear-gradient-4);}.cls-10{clip-path:url(#clip-path-5);}.cls-11{fill:url(#linear-gradient-5);}.cls-12{clip-path:url(#clip-path-6);}.cls-13{fill:url(#linear-gradient-6);}.cls-14{clip-path:url(#clip-path-7);}.cls-15{fill:url(#linear-gradient-7);}.cls-16{clip-path:url(#clip-path-8);}.cls-17{fill:url(#linear-gradient-8);}.cls-18{clip-path:url(#clip-path-9);}.cls-19{fill:url(#linear-gradient-9);}.cls-20{clip-path:url(#clip-path-10);}.cls-21{fill:url(#linear-gradient-10);}.cls-22{clip-path:url(#clip-path-11);}.cls-23{fill:url(#linear-gradient-11);}.cls-24{clip-path:url(#clip-path-12);}.cls-25{fill:url(#linear-gradient-12);}.cls-26{clip-path:url(#clip-path-13);}.cls-27{fill:url(#linear-gradient-13);}.cls-28{clip-path:url(#clip-path-14);}.cls-29{fill:url(#linear-gradient-14);}.cls-30{clip-path:url(#clip-path-15);}.cls-31{fill:url(#linear-gradient-15);}.cls-32{clip-path:url(#clip-path-16);}.cls-33{fill:url(#linear-gradient-16);}.cls-34{clip-path:url(#clip-path-17);}.cls-35{fill:url(#linear-gradient-17);}.cls-36{clip-path:url(#clip-path-18);}.cls-37{fill:url(#linear-gradient-18);}.cls-38{clip-path:url(#clip-path-19);}.cls-39{fill:url(#linear-gradient-19);}.cls-40{clip-path:url(#clip-path-20);}.cls-41{fill:url(#linear-gradient-20);}.cls-42{clip-path:url(#clip-path-21);}.cls-43{fill:url(#linear-gradient-21);}.cls-44{clip-path:url(#clip-path-22);}.cls-45{fill:url(#linear-gradient-22);}.cls-46{clip-path:url(#clip-path-23);}.cls-47{fill:url(#linear-gradient-23);}.cls-48{clip-path:url(#clip-path-24);}.cls-49{fill:url(#linear-gradient-24);}.cls-50{clip-path:url(#clip-path-25);}.cls-51{fill:url(#linear-gradient-25);}.cls-52{clip-path:url(#clip-path-26);}.cls-53{fill:url(#linear-gradient-26);}.cls-54{clip-path:url(#clip-path-27);}.cls-55{fill:url(#linear-gradient-27);}.cls-56{clip-path:url(#clip-path-28);}.cls-57{fill:url(#linear-gradient-28);}.cls-58{clip-path:url(#clip-path-29);}.cls-59{fill:url(#linear-gradient-29);}.cls-60{clip-path:url(#clip-path-30);}.cls-61{fill:url(#linear-gradient-30);}.cls-62{clip-path:url(#clip-path-31);}.cls-63{fill:url(#linear-gradient-31);}.cls-64{clip-path:url(#clip-path-32);}.cls-65{fill:url(#linear-gradient-32);}.cls-66{clip-path:url(#clip-path-33);}.cls-67{fill:url(#linear-gradient-33);}.cls-68{clip-path:url(#clip-path-34);}.cls-69{fill:url(#linear-gradient-34);}.cls-70{clip-path:url(#clip-path-35);}.cls-71{fill:url(#linear-gradient-35);}.cls-72{clip-path:url(#clip-path-36);}.cls-73{fill:url(#linear-gradient-36);}.cls-74{clip-path:url(#clip-path-37);}.cls-75{fill:url(#linear-gradient-37);}.cls-76{clip-path:url(#clip-path-38);}.cls-77{fill:url(#linear-gradient-38);}.cls-78{clip-path:url(#clip-path-39);}.cls-79{fill:url(#linear-gradient-39);}.cls-80{clip-path:url(#clip-path-40);}.cls-81{fill:url(#linear-gradient-40);}.cls-82{clip-path:url(#clip-path-41);}.cls-83{fill:url(#linear-gradient-41);}.cls-84{clip-path:url(#clip-path-42);}.cls-85{fill:url(#linear-gradient-42);}.cls-86{clip-path:url(#clip-path-43);}.cls-87{fill:url(#linear-gradient-43);}.cls-88{clip-path:url(#clip-path-44);}.cls-89{fill:url(#linear-gradient-44);}.cls-90{clip-path:url(#clip-path-45);}.cls-91{fill:url(#linear-gradient-45);}.cls-92{clip-path:url(#clip-path-46);}.cls-93{fill:url(#linear-gradient-46);}.cls-94{clip-path:url(#clip-path-47);}.cls-95{fill:url(#linear-gradient-47);}.cls-96{clip-path:url(#clip-path-48);}.cls-97{fill:url(#linear-gradient-48);}.cls-98{clip-path:url(#clip-path-49);}.cls-99{fill:url(#linear-gradient-49);}.cls-100{clip-path:url(#clip-path-50);}.cls-101{fill:url(#linear-gradient-50);}.cls-102{clip-path:url(#clip-path-51);}.cls-103{fill:url(#linear-gradient-51);}.cls-104{clip-path:url(#clip-path-52);}.cls-105{fill:url(#linear-gradient-52);}.cls-106{clip-path:url(#clip-path-53);}.cls-107{fill:url(#linear-gradient-53);}.cls-108{clip-path:url(#clip-path-54);}.cls-109{fill:url(#linear-gradient-54);}.cls-110{clip-path:url(#clip-path-55);}.cls-111{fill:url(#linear-gradient-55);}.cls-112{clip-path:url(#clip-path-56);}.cls-113{fill:url(#linear-gradient-56);}.cls-114{clip-path:url(#clip-path-57);}.cls-115{fill:url(#linear-gradient-57);}.cls-116{clip-path:url(#clip-path-58);}.cls-117{fill:url(#linear-gradient-58);}.cls-118{clip-path:url(#clip-path-59);}.cls-119{fill:url(#linear-gradient-59);}.cls-120{clip-path:url(#clip-path-60);}.cls-121{fill:url(#linear-gradient-60);}.cls-122{clip-path:url(#clip-path-61);}.cls-123{fill:url(#linear-gradient-61);}.cls-124{clip-path:url(#clip-path-62);}.cls-125{fill:url(#linear-gradient-62);}.cls-126{clip-path:url(#clip-path-63);}.cls-127{fill:url(#linear-gradient-63);}.cls-128{clip-path:url(#clip-path-64);}.cls-129{fill:url(#linear-gradient-64);}.cls-130{clip-path:url(#clip-path-65);}.cls-131{fill:url(#linear-gradient-65);}.cls-132{clip-path:url(#clip-path-66);}.cls-133{fill:url(#linear-gradient-66);}.cls-134{clip-path:url(#clip-path-67);}.cls-135{fill:url(#linear-gradient-67);}.cls-136{clip-path:url(#clip-path-68);}.cls-137{fill:url(#linear-gradient-68);}.cls-138{clip-path:url(#clip-path-69);}.cls-139{fill:url(#linear-gradient-69);}</style><clipPath id="clip-path" transform="translate(475.43 -35.47)"><path class="cls-1" d="M-420.88,90a185,185,0,0,0-54.54,131.67,185,185,0,0,0,54.54,131.67A185,185,0,0,0-289.21,407.9a185,185,0,0,0,131.67-54.54A185,185,0,0,0-103,221.69,185,185,0,0,0-157.54,90,185,185,0,0,0-289.21,35.47,185,185,0,0,0-420.88,90"/></clipPath><linearGradient id="linear-gradient" x1="0.01" y1="596.72" x2="1.01" y2="596.72" gradientTransform="matrix(0, -372.43, -372.43, 0, 222422.9, 377.49)" gradientUnits="userSpaceOnUse"><stop offset="0" stop-color="#72140a"/><stop offset="0.24" stop-color="#92120d"/><stop offset="0.57" stop-color="#b80f11"/><stop offset="0.83" stop-color="#cf0e13"/><stop offset="1" stop-color="#d80d14"/></linearGradient><clipPath id="clip-path-2" transform="translate(475.43 -35.47)"><path class="cls-1" d="M-473.72,221.69c0,101.74,82.77,184.51,184.51,184.51S-104.7,323.43-104.7,221.69-187.47,37.18-289.21,37.18-473.72,120-473.72,221.69"/></clipPath><linearGradient id="linear-gradient-2" x1="0.01" y1="596.73" x2="1.01" y2="596.73" gradientTransform="matrix(0, -369.01, -369.01, 0, 220388.96, 375.78)" gradientUnits="userSpaceOnUse"><stop offset="0" stop-color="#fabd00"/><stop offset="0.06" stop-color="#fbc900"/><stop offset="0.2" stop-color="#fddb00"/><stop offset="0.33" stop-color="#ffe600"/><stop offset="0.48" stop-color="#ffea00"/><stop offset="0.63" stop-color="#ffea04"/><stop offset="0.76" stop-color="#ffeb0f"/><stop offset="0.88" stop-color="#ffec21"/><stop offset="1" stop-color="#ffed3a"/></linearGradient><clipPath id="clip-path-3" transform="translate(475.43 -35.47)"><path class="cls-1" d="M-444.57,221.69A155.36,155.36,0,0,0-289.21,377.05,155.36,155.36,0,0,0-133.85,221.69,155.36,155.36,0,0,0-289.21,66.33,155.36,155.36,0,0,0-444.57,221.69"/></clipPath><linearGradient id="linear-gradient-3" x1="0.02" y1="597.01" x2="1.02" y2="597.01" gradientTransform="matrix(0, -310.72, -310.72, 0, 185691.64, 346.64)" xlink:href="#linear-gradient"/><clipPath id="clip-path-4" transform="translate(475.43 -35.47)"><polygon class="cls-1" points="-339.48 226.85 -339.48 238.33 -294.31 238.33 -294.31 310.16 -283.19 310.16 -283.19 238.33 -238.02 238.33 -238.02 226.85 -339.48 226.85"/></clipPath><linearGradient id="linear-gradient-4" x1="0.06" y1="601.74" x2="1.06" y2="601.74" gradientTransform="matrix(0, -83.31, -83.31, 0, 50318.83, 279.75)" xlink:href="#linear-gradient-2"/><clipPath id="clip-path-5" transform="translate(475.43 -35.47)"><polygon class="cls-1" points="-249.69 249.62 -249.69 276.47 -260.8 276.47 -260.8 249.62 -271.9 249.62 -271.9 310.12 -260.8 309.98 -260.8 288.32 -249.69 288.32 -249.69 309.98 -238.02 309.98 -238.02 249.62 -249.69 249.62"/></clipPath><linearGradient id="linear-gradient-5" x1="0.08" y1="604.18" x2="1.08" y2="604.18" gradientTransform="matrix(0, -60.49, -60.49, 0, 36769.53, 279.71)" xlink:href="#linear-gradient-2"/><clipPath id="clip-path-6" transform="translate(475.43 -35.47)"><path class="cls-1" d="M-316.92,255.57a5.93,5.93,0,0,0,5.93,5.92,5.92,5.92,0,0,0,5.92-5.92,5.92,5.92,0,0,0-5.92-5.93,5.92,5.92,0,0,0-5.93,5.93"/></clipPath><linearGradient id="linear-gradient-6" x1="0.43" y1="640.7" x2="1.43" y2="640.7" gradientTransform="matrix(0, -11.85, -11.85, 0, 7756.95, 231.08)" xlink:href="#linear-gradient-2"/><clipPath id="clip-path-7" transform="translate(475.43 -35.47)"><rect class="cls-1" x="-316.71" y="272.02" width="11.29" height="16.29"/></clipPath><linearGradient id="linear-gradient-7" x1="0.31" y1="628.32" x2="1.31" y2="628.32" gradientTransform="matrix(0, -16.29, -16.29, 0, 10400.49, 257.91)" xlink:href="#linear-gradient-2"/><clipPath id="clip-path-8" transform="translate(475.43 -35.47)"><polygon class="cls-1" points="-339.48 249.62 -339.48 310.63 -305.6 310.63 -305.6 299.06 -327.72 299.06 -327.72 249.62 -339.48 249.62"/></clipPath><linearGradient id="linear-gradient-8" x1="0.08" y1="604.1" x2="1.08" y2="604.1" gradientTransform="matrix(0, -61, -61, 0, 37006.02, 280.22)" xlink:href="#linear-gradient-2"/><clipPath id="clip-path-9" transform="translate(475.43 -35.47)"><path class="cls-1" d="M-293.08,86.66a45.81,45.81,0,0,0-11.14,1.45c-37.47,9.39-68.51,51-68.51,51V115.8A248.8,248.8,0,0,0-394,136.46c-6.16,7-12.66,19-12.74,19.14v133a182.86,182.86,0,0,0,13.19,19.45c7.69,9.82,20.78,20.5,20.78,20.5V151s32.55-30.41,65.27-32.77c11.38-.82,22.47,14,14.93,45.27-5.58,23.13-16.42,49.33-16.42,49.33h35.45s6.26-14,10.55-26.51c2.54-7.37,7.41-22.8,7.41-22.8s21.47-26.51,42.73-20.91c18.9,5,27.39,43,28.26,61.5,2.41,51.06-21.61,71.43-21.61,71.43V329s38.38-22.77,50.51-83.74C-145.35,193.51-175.5,131-202.8,124c-28-7.23-50.36,22.58-50.36,22.58s0.72-8.75-2.08-23.13c-3.42-17.62-15.46-36.78-37.84-36.78h0"/></clipPath><linearGradient id="linear-gradient-9" x1="0.02" y1="597.48" x2="1.02" y2="597.48" gradientTransform="matrix(0, -242.35, -242.35, 0, 144998.27, 298.6)" xlink:href="#linear-gradient-2"/><clipPath id="clip-path-10" transform="translate(475.43 -35.47)"><path class="cls-1" d="M-334.85,318.45a4.6,4.6,0,0,1-1.31,1.8,5,5,0,0,1-2.53.59v4.31l3,0-0.07,24.19h6.31V318.44h-5.42Z"/></clipPath><linearGradient id="linear-gradient-10" x1="0.16" y1="612.71" x2="1.16" y2="612.71" gradientTransform="matrix(0, -30.87, -30.87, 0, 19056.78, 318.91)" xlink:href="#linear-gradient-2"/><clipPath id="clip-path-11" transform="translate(475.43 -35.47)"><path class="cls-1" d="M-309.38,339.07c0-1.07,0-5.62,0-6.84,0-1.73.61-2.56,2-2.56s2.07,1.5,2.1,2.6,0,5.89,0,6.85c0,1.17-.56,2.48-2.08,2.49h0c-1.28,0-2-1.46-2-2.54m-5.13-11.34c-1.64,2.21-1.57,5.55-1.39,9.82,0.21,5.13,2,8.12,5.77,8.76s4.94-1.61,4.94-1.61,0.12,3,.12,3.81,0.28,2.61-2.07,2.82-2.1-3.17-2.1-3.17l-6.23,0s-0.59,8.24,8.76,8.11c5.45-.08,7.69-2.88,7.79-8.54,0.15-8.1,0-10.39-.24-14.89-0.31-6.75-5.1-8.17-8.73-8.17s-5.38,1.43-6.62,3.1"/></clipPath><linearGradient id="linear-gradient-11" x1="0.16" y1="612.31" x2="1.16" y2="612.31" gradientTransform="matrix(0, -31.61, -31.61, 0, 19521.1, 325.84)" xlink:href="#linear-gradient-2"/><clipPath id="clip-path-12" transform="translate(475.43 -35.47)"><path class="cls-1" d="M-278.39,349c0-1.07.08-5.89,0.12-6.85,0-1.17.59-2.47,2.12-2.46,1.29,0,2,1.48,2,2.57s-0.07,5.62-.09,6.84c0,1.71-.63,2.54-2,2.54h0c-1.49,0-2-1.53-2.06-2.63m1.79-23.94c-5.44,0-7.73,2.78-7.91,8.44-0.26,8.1-.11,10.38,0,14.89,0.22,6.75,5,8.24,8.62,8.29s5.4-1.35,6.66-3c1.67-2.19,1.64-5.53,1.52-9.8-0.15-5.13-1.92-8.14-5.65-8.83s-5,1.55-5,1.55-0.08-3-.07-3.82-0.25-2.61,2.1-2.79,2.06,3.2,2.06,3.2l6.23,0.11s0.7-8.23-8.64-8.23h0Z"/></clipPath><linearGradient id="linear-gradient-12" x1="0.16" y1="612.3" x2="1.16" y2="612.3" gradientTransform="matrix(0, -31.62, -31.62, 0, 19560.86, 326.27)" xlink:href="#linear-gradient-2"/><clipPath id="clip-path-13" transform="translate(475.43 -35.47)"><path class="cls-1" d="M-249,332.67c0-1.07,0-5.62,0-6.84,0-1.73.61-2.56,2-2.56s2.07,1.51,2.1,2.6,0,5.89,0,6.85c0,1.17-.56,2.48-2.08,2.49h0c-1.28,0-2-1.46-2-2.54m-5.13-11.34c-1.64,2.21-1.57,5.55-1.39,9.82,0.21,5.13,2,8.11,5.77,8.76s4.94-1.61,4.94-1.61,0.12,3,.12,3.81,0.28,2.61-2.07,2.82-2.1-3.17-2.1-3.17l-6.23,0s-0.59,8.25,8.76,8.12c5.45-.08,7.69-2.88,7.8-8.54,0.15-8.1,0-10.39-.24-14.89-0.31-6.75-5.1-8.17-8.73-8.17s-5.38,1.43-6.62,3.1"/></clipPath><linearGradient id="linear-gradient-13" x1="0.16" y1="612.31" x2="1.16" y2="612.31" gradientTransform="matrix(0, -31.61, -31.61, 0, 19581.46, 319.43)" xlink:href="#linear-gradient-2"/><clipPath id="clip-path-14" transform="translate(475.43 -35.47)"><polygon class="cls-1" points="-154.66 132.1 -153.17 134.53 -142.73 128.18 -149.13 141.19 -147.48 143.91 -132.17 134.62 -133.65 132.19 -144.1 138.55 -137.74 125.47 -139.35 122.81 -154.66 132.1"/></clipPath><linearGradient id="linear-gradient-14" x1="0.24" y1="620.79" x2="1.24" y2="620.79" gradientTransform="matrix(0, -21.1, -21.1, 0, 13429.1, 113.5)" gradientUnits="userSpaceOnUse"><stop offset="0" stop-color="#d50911"/><stop offset="0.25" stop-color="#dd2723"/><stop offset="0.55" stop-color="#e54333"/><stop offset="0.81" stop-color="#e9543d"/><stop offset="1" stop-color="#eb5a41"/></linearGradient><clipPath id="clip-path-15" transform="translate(475.43 -35.47)"><polygon class="cls-1" points="-162.55 121.42 -155.72 130.58 -153.69 129.08 -158.4 122.73 -154.03 119.49 -150.4 124.37 -148.43 122.89 -152.05 118.01 -148.05 115.05 -143.66 120.93 -141.69 119.47 -148.18 110.73 -162.55 121.42"/></clipPath><linearGradient id="linear-gradient-15" x1="0.26" y1="622.4" x2="1.26" y2="622.4" gradientTransform="matrix(0, -19.84, -19.84, 0, 12674.32, 100.17)" xlink:href="#linear-gradient-14"/><clipPath id="clip-path-16" transform="translate(475.43 -35.47)"><polygon class="cls-1" points="-173.91 108.4 -172.01 110.51 -162.93 102.32 -166.77 116.32 -164.64 118.67 -151.35 106.67 -153.25 104.56 -162.33 112.77 -158.53 98.73 -160.62 96.42 -173.91 108.4"/></clipPath><linearGradient id="linear-gradient-16" x1="0.23" y1="619.46" x2="1.23" y2="619.46" gradientTransform="matrix(0, -22.26, -22.26, 0, 14099.42, 88.26)" xlink:href="#linear-gradient-14"/><clipPath id="clip-path-17" transform="translate(475.43 -35.47)"><path class="cls-1" d="M-180.54,99.55a4,4,0,0,1-1.33-4,9.74,9.74,0,0,1,2.32-4.41,9.51,9.51,0,0,1,4.12-2.81,3.94,3.94,0,0,1,4.14.87,4,4,0,0,1,1.33,4,9.61,9.61,0,0,1-2.32,4.42,9.65,9.65,0,0,1-4.12,2.81,4.44,4.44,0,0,1-1.42.25,4,4,0,0,1-2.72-1.1m2.2-13.92a11.45,11.45,0,0,0-4,3A11.44,11.44,0,0,0-184.87,93a7.45,7.45,0,0,0,0,4.46,8.89,8.89,0,0,0,2.7,3.93,9,9,0,0,0,4.2,2.22,7.51,7.51,0,0,0,4.44-.51,11.23,11.23,0,0,0,4-3A11.42,11.42,0,0,0-167,95.75a7.36,7.36,0,0,0,0-4.48,9,9,0,0,0-2.66-3.93,9.06,9.06,0,0,0-4.21-2.2,7.25,7.25,0,0,0-1.45-.15,7.7,7.7,0,0,0-3,.64"/></clipPath><linearGradient id="linear-gradient-17" x1="0.27" y1="624.01" x2="1.27" y2="624.01" gradientTransform="matrix(0, -18.74, -18.74, 0, 11992, 73.32)" xlink:href="#linear-gradient-14"/><clipPath id="clip-path-18" transform="translate(475.43 -35.47)"><polygon class="cls-1" points="-193.28 91.73 -190.47 93.87 -179.66 79.59 -182.47 77.46 -193.28 91.73"/></clipPath><linearGradient id="linear-gradient-18" x1="0.31" y1="628.09" x2="1.31" y2="628.09" gradientTransform="matrix(0, -16.41, -16.41, 0, 10593.95, 63.46)" xlink:href="#linear-gradient-14"/><clipPath id="clip-path-19" transform="translate(475.43 -35.47)"><polygon class="cls-1" points="-199.24 69.07 -194.15 72.39 -202.58 85.33 -199.6 87.26 -191.19 74.33 -186.08 77.65 -184.74 75.58 -197.89 67 -199.24 69.07"/></clipPath><linearGradient id="linear-gradient-19" x1="0.25" y1="621.85" x2="1.25" y2="621.85" gradientTransform="matrix(0, -20.26, -20.26, 0, 12881.47, 56.85)" xlink:href="#linear-gradient-14"/><clipPath id="clip-path-20" transform="translate(475.43 -35.47)"><polygon class="cls-1" points="-212.86 68.96 -213.05 69.32 -211.59 80.01 -207.71 82.04 -209.44 69.98 -200.69 65.52 -203.25 64.17 -212.86 68.96"/></clipPath><linearGradient id="linear-gradient-20" x1="0.28" y1="625.4" x2="1.28" y2="625.4" gradientTransform="matrix(0, -17.87, -17.87, 0, 11443.96, 51.63)" xlink:href="#linear-gradient-14"/><clipPath id="clip-path-21" transform="translate(475.43 -35.47)"><polygon class="cls-1" points="-220.15 75.55 -217.13 77.12 -213.05 69.32 -212.86 68.96 -208.85 61.27 -211.85 59.69 -220.15 75.55"/></clipPath><linearGradient id="linear-gradient-21" x1="0.29" y1="626.16" x2="1.29" y2="626.16" gradientTransform="matrix(0, -17.43, -17.43, 0, 11176.34, 46.71)" xlink:href="#linear-gradient-14"/><clipPath id="clip-path-22" transform="translate(475.43 -35.47)"><polygon class="cls-1" points="-232.36 70.4 -221.78 74.75 -220.81 72.41 -228.13 69.41 -226.06 64.38 -220.44 66.68 -219.49 64.4 -225.13 62.08 -223.23 57.49 -216.43 60.28 -215.48 58 -225.56 53.86 -232.36 70.4"/></clipPath><linearGradient id="linear-gradient-22" x1="0.24" y1="621.05" x2="1.24" y2="621.05" gradientTransform="matrix(0, -20.89, -20.89, 0, 13224.24, 44.34)" xlink:href="#linear-gradient-14"/><clipPath id="clip-path-23" transform="translate(475.43 -35.47)"><path class="cls-1" d="M-238.84,50.46a4.66,4.66,0,0,0-2.45,2.85,4.71,4.71,0,0,0,0,3,11.38,11.38,0,0,0,2.37,3.55l0.89,1a6.81,6.81,0,0,1,1.45,2.09,2.36,2.36,0,0,1,0,1.41,2.25,2.25,0,0,1-1.22,1.39,3.16,3.16,0,0,1-2.34,0,12,12,0,0,1-1.67-.72,14.69,14.69,0,0,1-2.51-1.9L-245.29,66a23.08,23.08,0,0,0,4.39,2q3.3,1.05,5.3.06A5,5,0,0,0-232.95,65a5,5,0,0,0,.11-2.87,10.82,10.82,0,0,0-2.54-3.83l-1-1.06a7.16,7.16,0,0,1-1.46-2,1.83,1.83,0,0,1,0-1.23,1.72,1.72,0,0,1,1.06-1.14,2.78,2.78,0,0,1,2,0A12.21,12.21,0,0,1-231,55.09l0.87-2.72a18.69,18.69,0,0,0-4.23-2,7.5,7.5,0,0,0-2.32-.4,4.7,4.7,0,0,0-2.13.48"/></clipPath><linearGradient id="linear-gradient-23" x1="0.27" y1="624.24" x2="1.27" y2="624.24" gradientTransform="matrix(0, -18.59, -18.59, 0, 11840.68, 38.16)" xlink:href="#linear-gradient-14"/><clipPath id="clip-path-24" transform="translate(475.43 -35.47)"><path class="cls-1" d="M-254.33,46.45a7.45,7.45,0,0,0-3.55,2.66,11.92,11.92,0,0,0-2,4.48,10.38,10.38,0,0,0,.68,7.06q1.54,3.08,6.21,4.1a20,20,0,0,0,2.16.36,29.44,29.44,0,0,0,3.4,0l1.67-7.52-3.46-.76-1.27,5.75a7.43,7.43,0,0,1-1.43-.13,5.35,5.35,0,0,1-3.87-2.77,7.55,7.55,0,0,1-.44-5.22,8.76,8.76,0,0,1,2.35-4.52,4.7,4.7,0,0,1,4.64-1.06,12.77,12.77,0,0,1,1.86.57,19.87,19.87,0,0,1,3,1.69l0.63-2.85A22,22,0,0,0-249,46.4a13.24,13.24,0,0,0-2.85-.34,7.4,7.4,0,0,0-2.52.4"/></clipPath><linearGradient id="linear-gradient-24" x1="0.26" y1="623.46" x2="1.27" y2="623.46" gradientTransform="matrix(0, -19.11, -19.11, 0, 12135.55, 34.75)" xlink:href="#linear-gradient-14"/><clipPath id="clip-path-25" transform="translate(475.43 -35.47)"><path class="cls-1" d="M-271.31,59.18a3.94,3.94,0,0,1-3.42-2.49,9.5,9.5,0,0,1-.66-4.94,9.34,9.34,0,0,1,1.73-4.69,4,4,0,0,1,3.86-1.69,4,4,0,0,1,3.42,2.49,9.46,9.46,0,0,1,.66,4.94,9.63,9.63,0,0,1-1.71,4.69,3.87,3.87,0,0,1-3.28,1.73,5.34,5.34,0,0,1-.6,0m-2.94-15.59a7.31,7.31,0,0,0-3.32,3,11.31,11.31,0,0,0-1.56,4.79,11.67,11.67,0,0,0,.48,5A7.58,7.58,0,0,0-276,60a8.93,8.93,0,0,0,4.46,1.65,8.87,8.87,0,0,0,4.71-.65,7.45,7.45,0,0,0,3.32-3A11.43,11.43,0,0,0-262,53.21a11.39,11.39,0,0,0-.49-5,7.32,7.32,0,0,0-2.62-3.65,9,9,0,0,0-4.44-1.63,11.41,11.41,0,0,0-1.21-.07,8.47,8.47,0,0,0-3.5.71"/></clipPath><linearGradient id="linear-gradient-25" x1="0.27" y1="623.88" x2="1.27" y2="623.88" gradientTransform="matrix(0, -18.82, -18.82, 0, 11946.78, 31.28)" xlink:href="#linear-gradient-14"/><clipPath id="clip-path-26" transform="translate(475.43 -35.47)"><polygon class="cls-1" points="-291.87 60.11 -280.76 60.28 -280.71 57.75 -288.28 57.62 -288.04 42.26 -291.57 42.2 -291.87 60.11"/></clipPath><linearGradient id="linear-gradient-26" x1="0.28" y1="625.05" x2="1.28" y2="625.05" gradientTransform="matrix(0, -18.08, -18.08, 0, 11488.88, 29.87)" xlink:href="#linear-gradient-14"/><clipPath id="clip-path-27" transform="translate(475.43 -35.47)"><path class="cls-1" d="M-306.78,57a9.74,9.74,0,0,1-1.6-4.73,9.52,9.52,0,0,1,.8-4.92,3.94,3.94,0,0,1,3.47-2.39,3.94,3.94,0,0,1,3.82,1.79,9.44,9.44,0,0,1,1.61,4.73,9.59,9.59,0,0,1-.8,4.92,3.94,3.94,0,0,1-3.48,2.39l-0.48,0A3.89,3.89,0,0,1-306.78,57m2.49-14.49a8.92,8.92,0,0,0-4.5,1.54,7.25,7.25,0,0,0-2.72,3.57,11.5,11.5,0,0,0-.61,5,11.38,11.38,0,0,0,1.42,4.8,7.45,7.45,0,0,0,3.25,3.08,8.86,8.86,0,0,0,4.71.76,8.6,8.6,0,0,0,4.5-1.54,7.46,7.46,0,0,0,2.7-3.55,11.58,11.58,0,0,0,.61-5,11.46,11.46,0,0,0-1.42-4.81,7.5,7.5,0,0,0-3.26-3.08,8.77,8.77,0,0,0-3.74-.8q-0.46,0-.93,0"/></clipPath><linearGradient id="linear-gradient-27" x1="0.27" y1="623.9" x2="1.27" y2="623.9" gradientTransform="matrix(0, -18.81, -18.81, 0, 11906.55, 30.84)" xlink:href="#linear-gradient-14"/><clipPath id="clip-path-28" transform="translate(475.43 -35.47)"><polygon class="cls-1" points="-319.79 44.84 -317.43 56.84 -327.5 46.36 -330.55 46.95 -327.14 64.51 -324.35 63.98 -326.68 51.98 -316.67 62.48 -313.56 61.87 -317 44.31 -319.79 44.84"/></clipPath><linearGradient id="linear-gradient-28" x1="0.25" y1="621.92" x2="1.25" y2="621.92" gradientTransform="matrix(0, -20.2, -20.2, 0, 12719.16, 34.1)" xlink:href="#linear-gradient-14"/><clipPath id="clip-path-29" transform="translate(475.43 -35.47)"><polygon class="cls-1" points="-338.19 49.09 -341.68 59.23 -341.57 59.63 -333.02 66.22 -328.85 64.95 -338.53 57.56 -335.42 48.24 -338.19 49.09"/></clipPath><linearGradient id="linear-gradient-29" x1="0.28" y1="625.21" x2="1.28" y2="625.21" gradientTransform="matrix(0, -17.98, -17.98, 0, 11383.39, 35.81)" xlink:href="#linear-gradient-14"/><clipPath id="clip-path-30" transform="translate(475.43 -35.47)"><polygon class="cls-1" points="-347.47 51.92 -342.25 69.05 -339 68.05 -341.57 59.63 -341.68 59.23 -344.23 50.94 -347.47 51.92"/></clipPath><linearGradient id="linear-gradient-30" x1="0.28" y1="624.99" x2="1.28" y2="624.99" gradientTransform="matrix(0, -18.12, -18.12, 0, 11454.54, 38.64)" xlink:href="#linear-gradient-14"/><clipPath id="clip-path-31" transform="translate(475.43 -35.47)"><polygon class="cls-1" points="-361.39 57.37 -354.63 73.95 -344.06 69.64 -345.01 67.29 -352.32 70.27 -354.37 65.22 -348.75 62.94 -349.68 60.64 -355.3 62.94 -357.18 58.32 -350.38 55.55 -351.31 53.27 -361.39 57.37"/></clipPath><linearGradient id="linear-gradient-31" x1="0.24" y1="621.31" x2="1.24" y2="621.31" gradientTransform="matrix(0, -20.68, -20.68, 0, 12971.1, 43.54)" xlink:href="#linear-gradient-14"/><clipPath id="clip-path-32" transform="translate(475.43 -35.47)"><polygon class="cls-1" points="-378.33 65.82 -377.19 68.01 -371.78 65.22 -364.7 78.93 -361.56 77.31 -368.65 63.6 -363.24 60.79 -364.36 58.61 -378.33 65.82"/></clipPath><linearGradient id="linear-gradient-32" x1="0.25" y1="621.77" x2="1.25" y2="621.77" gradientTransform="matrix(0, -20.32, -20.32, 0, 12739.1, 48.52)" xlink:href="#linear-gradient-14"/><clipPath id="clip-path-33" transform="translate(475.43 -35.47)"><polygon class="cls-1" points="-383.56 69.05 -376.89 79.31 -390.14 73.34 -392.76 75.05 -382.99 90.05 -380.61 88.5 -387.3 78.26 -374.08 84.24 -371.4 82.52 -381.18 67.51 -383.56 69.05"/></clipPath><linearGradient id="linear-gradient-33" x1="0.22" y1="619.16" x2="1.22" y2="619.16" gradientTransform="matrix(0, -22.54, -22.54, 0, 14049.53, 59.64)" xlink:href="#linear-gradient-14"/><clipPath id="clip-path-34" transform="translate(475.43 -35.47)"><polygon class="cls-1" points="-399.52 80.22 -388.64 94.44 -385.83 92.28 -396.71 78.07 -399.52 80.22"/></clipPath><linearGradient id="linear-gradient-34" x1="0.31" y1="628.16" x2="1.31" y2="628.16" gradientTransform="matrix(0, -16.37, -16.37, 0, 10365.13, 64.03)" xlink:href="#linear-gradient-14"/><clipPath id="clip-path-35" transform="translate(475.43 -35.47)"><polygon class="cls-1" points="-405.52 85.06 -404.48 95.75 -404.21 96.05 -393.69 98.5 -390.41 95.6 -402.3 92.92 -403.34 83.14 -405.52 85.06"/></clipPath><linearGradient id="linear-gradient-35" x1="0.33" y1="630.32" x2="1.33" y2="630.32" gradientTransform="matrix(0, -15.36, -15.36, 0, 9760.73, 68.09)" xlink:href="#linear-gradient-14"/><clipPath id="clip-path-36" transform="translate(475.43 -35.47)"><polygon class="cls-1" points="-412.78 91.5 -400.91 104.9 -398.37 102.64 -404.21 96.05 -404.48 95.75 -410.24 89.24 -412.78 91.5"/></clipPath><linearGradient id="linear-gradient-36" x1="0.32" y1="629.64" x2="1.32" y2="629.64" gradientTransform="matrix(0, -15.67, -15.67, 0, 9933.99, 74.49)" xlink:href="#linear-gradient-14"/><clipPath id="clip-path-37" transform="translate(475.43 -35.47)"><path class="cls-1" d="M-419.69,98a5.75,5.75,0,0,0-1.86,4.06,4.68,4.68,0,0,0,1.5,3.44,4.7,4.7,0,0,0,2.66,1.31,11,11,0,0,0,4.24-.59l1.27-.38a6.72,6.72,0,0,1,2.49-.4,2.34,2.34,0,0,1,1.27.65,2.21,2.21,0,0,1,.72,1.69,3.14,3.14,0,0,1-1,2.09,10.78,10.78,0,0,1-1.37,1.2,15.18,15.18,0,0,1-2.81,1.44l2.22,2.11a22,22,0,0,0,3.74-3.06c1.6-1.69,2.39-3.29,2.37-4.77a5.12,5.12,0,0,0-1.63-3.74,5.2,5.2,0,0,0-2.54-1.35,10.81,10.81,0,0,0-4.56.63l-1.37.4a7.49,7.49,0,0,1-2.45.44,2,2,0,0,1-1.14-.51,1.85,1.85,0,0,1-.57-1.46,3,3,0,0,1,.93-1.82A12.68,12.68,0,0,1-414,97l-2.09-2A20,20,0,0,0-419.69,98"/></clipPath><linearGradient id="linear-gradient-37" x1="0.26" y1="622.8" x2="1.26" y2="622.8" gradientTransform="matrix(0, -19.56, -19.56, 0, 12243.97, 84.2)" xlink:href="#linear-gradient-14"/><clipPath id="clip-path-38" transform="translate(475.43 -35.47)"><path class="cls-1" d="M-427.54,113.24l7.24,2.35-3.26,4.16Zm-3.59-1.25,9.93,16.29,1.6-2-2.64-4.35,4.35-5.53L-413,118l2.26-2.87-18.15-5.89Z"/></clipPath><linearGradient id="linear-gradient-38" x1="0.27" y1="623.51" x2="1.27" y2="623.51" gradientTransform="matrix(0, -19.07, -19.07, 0, 11942.03, 97.87)" xlink:href="#linear-gradient-14"/><clipPath id="clip-path-39" transform="translate(475.43 -35.47)"><polygon class="cls-1" points="-439.42 123.42 -430.93 133.64 -443.81 130.48 -446.28 134.47 -431.07 143.91 -429.6 141.53 -441.23 134.32 -428.46 137.45 -426.96 135.04 -435.24 125.01 -423.76 132.14 -422.03 129.36 -437.24 119.92 -439.42 123.42"/></clipPath><linearGradient id="linear-gradient-39" x1="0.21" y1="617.72" x2="1.21" y2="617.72" gradientTransform="matrix(0, -23.98, -23.98, 0, 14856.56, 113.5)" xlink:href="#linear-gradient-14"/><clipPath id="clip-path-40" transform="translate(475.43 -35.47)"><path class="cls-1" d="M-136.58,278.22l8.54,0.45-1.56,4.82Zm-2.6,1.39,14.66,11.3,1.08-2.71-3.89-3.19,2.13-6.23,5,0.53,1.16-3.36-18.67-.47Z"/></clipPath><linearGradient id="linear-gradient-40" x1="0.33" y1="630.15" x2="1.33" y2="630.15" gradientTransform="matrix(0, -15.44, -15.44, 0, 10074.78, 260.5)" gradientUnits="userSpaceOnUse"><stop offset="0" stop-color="#621104"/><stop offset="0.27" stop-color="#721308"/><stop offset="0.71" stop-color="#87150d"/><stop offset="1" stop-color="#8f160f"/></linearGradient><clipPath id="clip-path-41" transform="translate(475.43 -35.47)"><polygon class="cls-1" points="-145.73 295.01 -129.63 302.51 -125.53 294.19 -128.16 292.88 -130.92 298.54 -144.4 292.31 -145.73 295.01"/></clipPath><linearGradient id="linear-gradient-41" x1="0.5" y1="648.07" x2="1.5" y2="648.07" gradientTransform="matrix(0, -10.2, -10.2, 0, 6948.39, 272.1)" xlink:href="#linear-gradient-40"/><clipPath id="clip-path-42" transform="translate(475.43 -35.47)"><path class="cls-1" d="M-140.26,313.71a10.24,10.24,0,0,1-4.6-1.65,10.13,10.13,0,0,1-3.47-3.48,3.47,3.47,0,0,1,0-3.87,3.45,3.45,0,0,1,3.48-1.65,9.89,9.89,0,0,1,4.61,1.63,10.36,10.36,0,0,1,3.46,3.46,3.5,3.5,0,0,1,0,3.89,3.37,3.37,0,0,1-3.05,1.69l-0.44,0m-7-13.35a7.55,7.55,0,0,0-3.29,2.87,7.44,7.44,0,0,0-1.23,4.1,7.82,7.82,0,0,0,1.52,4.2,12.39,12.39,0,0,0,3.61,3.38,12.26,12.26,0,0,0,4.6,1.82,7.14,7.14,0,0,0,4.22-.36,7.81,7.81,0,0,0,3.34-2.83,7.85,7.85,0,0,0,1-4.31,7.09,7.09,0,0,0-1.37-4,12.5,12.5,0,0,0-3.63-3.38,12.69,12.69,0,0,0-4.58-1.82,11.08,11.08,0,0,0-1.74-.16,5.6,5.6,0,0,0-2.43.5"/></clipPath><linearGradient id="linear-gradient-42" x1="0.3" y1="626.91" x2="1.3" y2="626.91" gradientTransform="matrix(0, -17.02, -17.02, 0, 11000.51, 286.47)" xlink:href="#linear-gradient-40"/><clipPath id="clip-path-43" transform="translate(475.43 -35.47)"><polygon class="cls-1" points="-157.2 314.15 -154.41 323.38 -160.6 318.88 -162.4 321.35 -147.9 331.77 -146.11 329.28 -152.76 324.69 -142.81 324.71 -140.51 321.52 -151.84 321.78 -155.21 311.47 -157.2 314.15"/></clipPath><linearGradient id="linear-gradient-43" x1="0.25" y1="621.8" x2="1.25" y2="621.8" gradientTransform="matrix(0, -20.3, -20.3, 0, 12946.28, 301.36)" xlink:href="#linear-gradient-40"/><clipPath id="clip-path-44" transform="translate(475.43 -35.47)"><path class="cls-1" d="M-167.93,326.68c-1.23,1.33-3.19,4-.7,7.4a5.59,5.59,0,0,0,3.23,1.65,5.13,5.13,0,0,0,3.72-.89c1.82-1.44,4-2.85,5.47-1.1,1.58,1.9,0,3.42-.66,4.16s-3.55,1.69-5.07,1.54l2.41,2.24c1.71-.32,3.82-0.95,4.94-2.2a6.14,6.14,0,0,0,1.77-4.54,5.55,5.55,0,0,0-2-3.72c-0.7-.65-3.49-2.66-7.14,0-1.29.95-2.2,2.35-4,1s-0.32-3.57.27-4.2,1.75-1.23,4.35-1.56l-2.13-2a5.83,5.83,0,0,0-4.44,2.13"/></clipPath><linearGradient id="linear-gradient-44" x1="0.3" y1="626.74" x2="1.3" y2="626.74" gradientTransform="matrix(0, -17.13, -17.13, 0, 11048.64, 311.27)" xlink:href="#linear-gradient-40"/><clipPath id="clip-path-45" transform="translate(475.43 -35.47)"><path class="cls-1" d="M-176.7,336.31a7.17,7.17,0,0,0-2.64,3.72,7.22,7.22,0,0,0,0,4.25,12.31,12.31,0,0,0,2.26,4.24,10.56,10.56,0,0,0,5.73,3.91,7,7,0,0,0,6.7-2c1.37-1.31,2.83-4.18,2.36-5.85l-4.45-5-2.37,2.13,4.22,4.46a6.26,6.26,0,0,1-1.61,2.56,3.4,3.4,0,0,1-3.63.95,8.79,8.79,0,0,1-4.58-3.1c-1.2-1.48-2.09-2.68-2.05-4.24a5.47,5.47,0,0,1,2.43-4.14,6.06,6.06,0,0,1,5.51-.17l-2.2-2.66a4.8,4.8,0,0,0-2-.45,6,6,0,0,0-3.62,1.38"/></clipPath><linearGradient id="linear-gradient-45" x1="0.29" y1="625.68" x2="1.29" y2="625.68" gradientTransform="matrix(0, -17.7, -17.7, 0, 11380.36, 322.22)" xlink:href="#linear-gradient-40"/><clipPath id="clip-path-46" transform="translate(475.43 -35.47)"><path class="cls-1" d="M-183.65,361.64a9.87,9.87,0,0,1-3.8-2.87,9.57,9.57,0,0,1-2.13-4.25,3.46,3.46,0,0,1,1.2-3.65,3.45,3.45,0,0,1,3.78-.57,9.68,9.68,0,0,1,3.8,2.87,9.89,9.89,0,0,1,2.15,4.24,3.57,3.57,0,0,1-1.2,3.66,3.45,3.45,0,0,1-2.27.89,4.05,4.05,0,0,1-1.52-.32M-186,347.1a7.85,7.85,0,0,0-4,1.77,7.52,7.52,0,0,0-2.45,3.49,7.68,7.68,0,0,0,.1,4.39,11.52,11.52,0,0,0,2.32,4.2,11.39,11.39,0,0,0,3.7,3,6.87,6.87,0,0,0,4.06.87,7.78,7.78,0,0,0,4-1.71,7.74,7.74,0,0,0,2.28-3.76,7,7,0,0,0,0-4.16,12,12,0,0,0-2.32-4.2,11.29,11.29,0,0,0-3.72-3,7.36,7.36,0,0,0-3.32-.94,5.14,5.14,0,0,0-.68,0"/></clipPath><linearGradient id="linear-gradient-46" x1="0.28" y1="625.47" x2="1.28" y2="625.47" gradientTransform="matrix(0, -17.83, -17.83, 0, 11444.75, 334.47)" xlink:href="#linear-gradient-40"/><clipPath id="clip-path-47" transform="translate(475.43 -35.47)"><path class="cls-1" d="M-189.9,344.32a1.56,1.56,0,0,0-.42,2.13,1.52,1.52,0,0,0,2.15.13,1.54,1.54,0,0,0,.42-2.15,1.34,1.34,0,0,0-1.07-.49,1.75,1.75,0,0,0-1.07.38"/></clipPath><linearGradient id="linear-gradient-47" x1="1.68" y1="773.68" x2="2.68" y2="773.68" gradientTransform="matrix(0, -3.02, -3.02, 0, 2620.95, 316.55)" xlink:href="#linear-gradient-40"/><clipPath id="clip-path-48" transform="translate(475.43 -35.47)"><polygon class="cls-1" points="-200.34 355.96 -196.38 362.14 -202.62 366.14 -206.59 359.97 -209.06 361.64 -199.2 376.72 -196.62 375.14 -200.93 368.57 -194.69 364.62 -190.43 371.08 -188 369.39 -197.86 354.31 -200.34 355.96"/></clipPath><linearGradient id="linear-gradient-48" x1="0.23" y1="619.3" x2="1.23" y2="619.3" gradientTransform="matrix(0, -22.41, -22.41, 0, 14153.95, 346.31)" xlink:href="#linear-gradient-40"/><clipPath id="clip-path-49" transform="translate(475.43 -35.47)"><path class="cls-1" d="M-194,347.44a1.54,1.54,0,0,0-.42,2.13,1.52,1.52,0,0,0,2.15.13,1.55,1.55,0,0,0,.42-2.13,1.33,1.33,0,0,0-1.08-.51,1.74,1.74,0,0,0-1.07.38"/></clipPath><linearGradient id="linear-gradient-49" x1="1.68" y1="773.8" x2="2.68" y2="773.8" gradientTransform="matrix(0, -3.02, -3.02, 0, 2615.74, 319.67)" xlink:href="#linear-gradient-40"/><clipPath id="clip-path-50" transform="translate(475.43 -35.47)"><path class="cls-1" d="M-230.86,374.59l5.15,6.85-4.73,1.9Zm-2.73-1.1,0.74,18.48,2.79-.89-0.06-5,6.13-2.37,2.75,4.16,3.34-1.27-11.6-14.64Z"/></clipPath><linearGradient id="linear-gradient-50" x1="0.25" y1="622.12" x2="1.25" y2="622.12" gradientTransform="matrix(0, -20.05, -20.05, 0, 12725.05, 361.56)" xlink:href="#linear-gradient-40"/><clipPath id="clip-path-51" transform="translate(475.43 -35.47)"><polygon class="cls-1" points="-241.85 376.34 -245.99 385.34 -247.76 377.9 -250.74 378.62 -246.53 395.96 -243.54 395.23 -245.59 387.43 -238 393.6 -234.16 392.67 -243.01 385.82 -238.59 375.6 -241.85 376.34"/></clipPath><linearGradient id="linear-gradient-51" x1="0.25" y1="621.72" x2="1.25" y2="621.72" gradientTransform="matrix(0, -20.36, -20.36, 0, 12889.2, 365.55)" xlink:href="#linear-gradient-40"/><clipPath id="clip-path-52" transform="translate(475.43 -35.47)"><path class="cls-1" d="M-260,380.37c-1.79.34-5,1.37-4.92,5.56a5.55,5.55,0,0,0,1.63,3.25,5.2,5.2,0,0,0,3.53,1.48c2.3-.11,4.92.06,5.07,2.3,0.13,2.49-2.05,2.75-3,3s-3.87-.72-5-1.75l0.64,3.23c1.58,0.76,3.65,1.5,5.3,1.14a6.12,6.12,0,0,0,4.08-2.64,5.38,5.38,0,0,0,.61-4.16c-0.17-.93-1.25-4.2-5.77-4.18-1.61,0-3.15.61-3.89-1.54-0.68-2,1.86-3.08,2.7-3.25,1-.19,2.13,0,4.43,1.31l-0.57-2.85a5.76,5.76,0,0,0-3.27-1.07,7.92,7.92,0,0,0-1.56.18"/></clipPath><linearGradient id="linear-gradient-52" x1="0.27" y1="624.43" x2="1.27" y2="624.43" gradientTransform="matrix(0, -18.47, -18.47, 0, 11747.78, 368.24)" xlink:href="#linear-gradient-40"/><clipPath id="clip-path-53" transform="translate(475.43 -35.47)"><polygon class="cls-1" points="-271.4 382.38 -269.1 399.89 -265.73 399.45 -268 381.94 -271.4 382.38"/></clipPath><linearGradient id="linear-gradient-53" x1="0.28" y1="625.28" x2="1.28" y2="625.28" gradientTransform="matrix(0, -17.95, -17.95, 0, 11427.48, 369.48)" xlink:href="#linear-gradient-40"/><clipPath id="clip-path-54" transform="translate(475.43 -35.47)"><polygon class="cls-1" points="-276.97 382.68 -275.88 397.59 -282.85 383.04 -287.69 383.23 -286.86 400.89 -283.99 400.91 -284.81 385.97 -277 400.59 -273.23 400.44 -274.1 382.53 -276.97 382.68"/></clipPath><linearGradient id="linear-gradient-54" x1="0.28" y1="624.56" x2="1.28" y2="624.56" gradientTransform="matrix(0, -18.38, -18.38, 0, 11675.58, 370.5)" xlink:href="#linear-gradient-40"/><clipPath id="clip-path-55" transform="translate(475.43 -35.47)"><polygon class="cls-1" points="-302.7 400.99 -299.64 401.08 -299.56 393.01 -294 401.25 -290.07 401.37 -296.64 392.14 -289.63 383.56 -292.99 383.4 -299.41 390.89 -299.07 383.04 -302.13 382.95 -302.7 400.99"/></clipPath><linearGradient id="linear-gradient-55" x1="0.27" y1="624.5" x2="1.27" y2="624.5" gradientTransform="matrix(0, -18.42, -18.42, 0, 11682.48, 370.96)" xlink:href="#linear-gradient-40"/><clipPath id="clip-path-56" transform="translate(475.43 -35.47)"><polygon class="cls-1" points="-318.55 398.73 -307.63 400.31 -307.29 397.61 -315.14 396.32 -314.53 391.46 -306.82 392.41 -306.48 389.98 -314.11 388.82 -313.5 384.16 -305.74 385.3 -305.49 382.57 -316.29 380.86 -318.55 398.73"/></clipPath><linearGradient id="linear-gradient-56" x1="0.26" y1="622.96" x2="1.26" y2="622.96" gradientTransform="matrix(0, -19.45, -19.45, 0, 12277.04, 369.89)" xlink:href="#linear-gradient-40"/><clipPath id="clip-path-57" transform="translate(475.43 -35.47)"><polygon class="cls-1" points="-330.76 380.86 -326.45 381.9 -329.81 396.34 -326.7 397.08 -323.34 382.63 -318.78 383.76 -318.1 380.52 -330.06 377.69 -330.76 380.86"/></clipPath><linearGradient id="linear-gradient-57" x1="0.26" y1="623.04" x2="1.26" y2="623.04" gradientTransform="matrix(0, -19.39, -19.39, 0, 12230.72, 366.67)" xlink:href="#linear-gradient-40"/><clipPath id="clip-path-58" transform="translate(475.43 -35.47)"><path class="cls-1" d="M-360.65,371.08a5.76,5.76,0,0,0-.59,3.59,5.06,5.06,0,0,0,2,3.27c1.92,1.29,3.93,3,2.72,4.86-1.33,2.09-3.27,1-4.16.65s-2.71-2.89-3-4.39l-1.39,3c0.84,1.54,2.05,3.34,3.61,4a6.15,6.15,0,0,0,4.86.29,5.46,5.46,0,0,0,2.92-3c0.42-.86,1.46-4.14-2.18-6.78-1.31-.95-2.9-1.39-2.24-3.53s3.32-1.4,4.08-1c0.93,0.44,1.71,1.29,2.83,3.66l1.22-2.62a5.77,5.77,0,0,0-3.38-3.57,7.28,7.28,0,0,0-3.07-.78,5.05,5.05,0,0,0-4.21,2.36"/></clipPath><linearGradient id="linear-gradient-58" x1="0.28" y1="625.12" x2="1.28" y2="625.12" gradientTransform="matrix(0, -18.04, -18.04, 0, 11393.3, 356.35)" xlink:href="#linear-gradient-40"/><clipPath id="clip-path-59" transform="translate(475.43 -35.47)"><path class="cls-1" d="M-373.21,363.35a12,12,0,0,0-3.32,3.49,10.52,10.52,0,0,0-1.9,6.67,7,7,0,0,0,4,5.74c1.65,0.87,4.84,1.37,6.27.4l3.36-5.83-2.77-1.58-2.89,5.41a5.87,5.87,0,0,1-3-.72,3.36,3.36,0,0,1-2-3.13,8.79,8.79,0,0,1,1.48-5.32c1-1.6,1.9-2.83,3.38-3.3a5.53,5.53,0,0,1,4.69,1,6.16,6.16,0,0,1,1.9,5.18l1.82-2.94a5.3,5.3,0,0,0-2.66-5,7.13,7.13,0,0,0-4.35-1.35,7.22,7.22,0,0,0-4,1.31"/></clipPath><linearGradient id="linear-gradient-59" x1="0.28" y1="624.96" x2="1.28" y2="624.96" gradientTransform="matrix(0, -18.13, -18.13, 0, 11437.87, 349.76)" xlink:href="#linear-gradient-40"/><clipPath id="clip-path-60" transform="translate(475.43 -35.47)"><polygon class="cls-1" points="-395.78 364.95 -393.39 366.62 -384.94 354.08 -387.71 370.49 -384.12 373.06 -374.04 358.32 -376.66 356.63 -384.94 368.8 -381.87 353.1 -385.72 350.48 -395.78 364.95"/></clipPath><linearGradient id="linear-gradient-60" x1="0.22" y1="619.12" x2="1.22" y2="619.12" gradientTransform="matrix(0, -22.58, -22.58, 0, 14069.31, 342.64)" xlink:href="#linear-gradient-40"/><clipPath id="clip-path-61" transform="translate(475.43 -35.47)"><rect class="cls-1" x="-404.89" y="352.05" width="17.68" height="3.42" transform="translate(-422.63 -176.61) rotate(-51.1)"/></clipPath><linearGradient id="linear-gradient-61" x1="0.32" y1="629.11" x2="1.32" y2="629.11" gradientTransform="matrix(0, -15.91, -15.91, 0, 10090.47, 331.31)" xlink:href="#linear-gradient-40"/><clipPath id="clip-path-62" transform="translate(475.43 -35.47)"><path class="cls-1" d="M-405.64,345.56l-1.31-1.39,4.06-4.41,2,1.75c0.65,0.66,2.91,2.77,1,4.79a3.19,3.19,0,0,1-2.34,1.15c-1.49,0-2.77-1.25-3.41-1.89m-9.55,3.12,2,2,4.37-4.35,1.1,1.1c1.77,1.41,3.78,2.77,5.45,2.89a5.85,5.85,0,0,0,4.81-2,6.89,6.89,0,0,0,1.46-2.66,4.26,4.26,0,0,0-.07-2.43,8.91,8.91,0,0,0-2.22-3.34l-4.58-4.29Z"/></clipPath><linearGradient id="linear-gradient-62" x1="0.34" y1="631.02" x2="1.34" y2="631.02" gradientTransform="matrix(0, -15.06, -15.06, 0, 9572.33, 320.27)" xlink:href="#linear-gradient-40"/><clipPath id="clip-path-63" transform="translate(475.43 -35.47)"><path class="cls-1" d="M-408.39,327a1.5,1.5,0,0,0,0,2.15,1.54,1.54,0,0,0,2.15.3,1.51,1.51,0,0,0,0-2.15,1.72,1.72,0,0,0-1.28-.61,1.3,1.3,0,0,0-.86.31"/></clipPath><linearGradient id="linear-gradient-63" x1="1.65" y1="770.47" x2="2.65" y2="770.47" gradientTransform="matrix(0, -3.07, -3.07, 0, 2435.61, 299.38)" xlink:href="#linear-gradient-40"/><clipPath id="clip-path-64" transform="translate(475.43 -35.47)"><path class="cls-1" d="M-422.46,338.21a3.5,3.5,0,0,1-.76-3.78,9.65,9.65,0,0,1,2.66-3.91,9.63,9.63,0,0,1,4.14-2.36,3.51,3.51,0,0,1,3.72,1,3.49,3.49,0,0,1,.76,3.76,9.69,9.69,0,0,1-2.68,3.93,9.76,9.76,0,0,1-4.12,2.36,4.4,4.4,0,0,1-1.15.16,3.44,3.44,0,0,1-2.58-1.17m3.68-12.67a11.66,11.66,0,0,0-4.06,2.52,11.87,11.87,0,0,0-2.85,3.86,7,7,0,0,0-.65,4.12,7.79,7.79,0,0,0,1.9,3.91,7.86,7.86,0,0,0,3.87,2.09,7,7,0,0,0,4.16-.21,12.2,12.2,0,0,0,4.08-2.52,11.76,11.76,0,0,0,2.83-3.87,6.77,6.77,0,0,0,.68-4.06,8,8,0,0,0-2-3.87,7.64,7.64,0,0,0-3.61-2.28,6.18,6.18,0,0,0-1.52-.18,9,9,0,0,0-2.87.5"/></clipPath><linearGradient id="linear-gradient-64" x1="0.29" y1="626.52" x2="1.29" y2="626.52" gradientTransform="matrix(0, -17.23, -17.23, 0, 10851.77, 311.86)" xlink:href="#linear-gradient-40"/><clipPath id="clip-path-65" transform="translate(475.43 -35.47)"><path class="cls-1" d="M-411.72,323.09a1.5,1.5,0,0,0,0,2.15,1.54,1.54,0,0,0,2.14.3,1.5,1.5,0,0,0,0-2.15,1.72,1.72,0,0,0-1.28-.62,1.3,1.3,0,0,0-.86.31"/></clipPath><linearGradient id="linear-gradient-65" x1="1.65" y1="770.47" x2="2.65" y2="770.47" gradientTransform="matrix(0, -3.07, -3.07, 0, 2432.29, 295.44)" xlink:href="#linear-gradient-40"/><clipPath id="clip-path-66" transform="translate(475.43 -35.47)"><polygon class="cls-1" points="-438 321.08 -436.27 323.61 -429.7 318.9 -433.06 328.26 -430.84 331.49 -427.27 320.72 -416.43 321.02 -418.29 318.25 -427.92 317.78 -421.59 313.45 -423.32 310.94 -438 321.08"/></clipPath><linearGradient id="linear-gradient-66" x1="0.25" y1="621.48" x2="1.25" y2="621.48" gradientTransform="matrix(0, -20.55, -20.55, 0, 12817.48, 301.08)" xlink:href="#linear-gradient-40"/><clipPath id="clip-path-67" transform="translate(475.43 -35.47)"><polygon class="cls-1" points="-447.45 304.5 -446.18 307.08 -433.21 299.62 -442.75 313.18 -440.92 316.49 -425.31 307.64 -426.76 305.15 -439.57 312.82 -429.72 300.06 -432.07 295.82 -447.45 304.5"/></clipPath><linearGradient id="linear-gradient-67" x1="0.25" y1="621.33" x2="1.25" y2="621.33" gradientTransform="matrix(0, -20.66, -20.66, 0, 12876.13, 286.07)" xlink:href="#linear-gradient-40"/><clipPath id="clip-path-68" transform="translate(475.43 -35.47)"><polygon class="cls-1" points="-451.54 296.01 -450.36 298.65 -434.16 291.46 -435.32 288.82 -451.54 296.01"/></clipPath><linearGradient id="linear-gradient-68" x1="0.51" y1="650" x2="1.51" y2="650" gradientTransform="matrix(0, -9.84, -9.84, 0, 6426.39, 268.24)" xlink:href="#linear-gradient-40"/><clipPath id="clip-path-69" transform="translate(475.43 -35.47)"><polygon class="cls-1" points="-456.13 284.26 -453.06 293 -450.26 292.03 -452.39 286.1 -438.49 280.84 -439.5 278.01 -456.13 284.26"/></clipPath><linearGradient id="linear-gradient-69" x1="0.34" y1="631.21" x2="1.34" y2="631.21" gradientTransform="matrix(0, -14.98, -14.98, 0, 9485.31, 262.58)" xlink:href="#linear-gradient-40"/></defs><title>m-logo</title><g class="cls-2"><rect class="cls-3" width="372.43" height="372.43"/></g><g class="cls-4"><rect class="cls-5" x="1.71" y="1.71" width="369.01" height="369.01"/></g><g class="cls-6"><rect class="cls-7" x="30.85" y="30.85" width="310.72" height="310.72"/></g><g class="cls-8"><rect class="cls-9" x="135.95" y="191.38" width="101.46" height="83.31"/></g><g class="cls-10"><rect class="cls-11" x="203.52" y="214.15" width="33.88" height="60.49"/></g><g class="cls-12"><rect class="cls-13" x="158.51" y="214.17" width="11.85" height="11.85"/></g><g class="cls-14"><rect class="cls-15" x="158.72" y="236.55" width="11.29" height="16.29"/></g><g class="cls-16"><rect class="cls-17" x="135.94" y="214.15" width="33.88" height="61.01"/></g><g class="cls-18"><rect class="cls-19" x="68.72" y="51.18" width="261.36" height="242.35"/></g><g class="cls-20"><rect class="cls-21" x="136.74" y="282.97" width="9.26" height="30.87"/></g><g class="cls-22"><rect class="cls-23" x="159.28" y="289.16" width="17.38" height="31.74"/></g><g class="cls-24"><rect class="cls-25" x="190.66" y="289.58" width="17.52" height="31.67"/></g><g class="cls-26"><rect class="cls-27" x="219.64" y="282.76" width="17.38" height="31.74"/></g><g class="cls-28"><rect class="cls-29" x="320.77" y="87.34" width="22.48" height="21.1"/></g><g class="cls-30"><rect class="cls-31" x="312.87" y="75.26" width="20.87" height="19.85"/></g><g class="cls-32"><rect class="cls-33" x="301.51" y="60.94" width="22.56" height="22.26"/></g><g class="cls-34"><rect class="cls-35" x="290.1" y="49.52" width="18.8" height="18.89"/></g><g class="cls-36"><rect class="cls-37" x="282.14" y="41.99" width="13.62" height="16.41"/></g><g class="cls-38"><rect class="cls-39" x="272.84" y="31.53" width="17.85" height="20.26"/></g><g class="cls-40"><rect class="cls-41" x="262.38" y="28.7" width="12.36" height="17.87"/></g><g class="cls-42"><rect class="cls-43" x="255.28" y="24.22" width="11.3" height="17.43"/></g><g class="cls-44"><rect class="cls-45" x="243.07" y="18.39" width="16.88" height="20.89"/></g><g class="cls-46"><rect class="cls-47" x="230.13" y="14.51" width="15.13" height="18.77"/></g><g class="cls-48"><rect class="cls-49" x="215" y="10.58" width="16.73" height="19.12"/></g><g class="cls-50"><rect class="cls-51" x="196.1" y="7.4" width="17.53" height="18.94"/></g><g class="cls-52"><rect class="cls-53" x="183.55" y="6.73" width="11.17" height="18.08"/></g><g class="cls-54"><rect class="cls-55" x="163.16" y="6.97" width="17.49" height="18.92"/></g><g class="cls-56"><rect class="cls-57" x="144.87" y="8.84" width="17" height="20.2"/></g><g class="cls-58"><rect class="cls-59" x="133.74" y="12.76" width="12.84" height="17.98"/></g><g class="cls-60"><rect class="cls-61" x="127.95" y="15.46" width="8.47" height="18.11"/></g><g class="cls-62"><rect class="cls-63" x="114.03" y="17.8" width="17.34" height="20.68"/></g><g class="cls-64"><rect class="cls-65" x="97.09" y="23.13" width="16.77" height="20.32"/></g><g class="cls-66"><rect class="cls-67" x="82.66" y="32.04" width="21.36" height="22.54"/></g><g class="cls-68"><rect class="cls-69" x="75.9" y="42.6" width="13.69" height="16.37"/></g><g class="cls-70"><rect class="cls-71" x="69.9" y="47.67" width="15.12" height="15.36"/></g><g class="cls-72"><rect class="cls-73" x="62.65" y="53.76" width="14.41" height="15.67"/></g><g class="cls-74"><rect class="cls-75" x="53.85" y="59.57" width="17.32" height="19.56"/></g><g class="cls-76"><rect class="cls-77" x="44.3" y="73.74" width="20.34" height="19.07"/></g><g class="cls-78"><rect class="cls-79" x="29.15" y="84.45" width="24.25" height="23.98"/></g><g class="cls-80"><rect class="cls-81" x="336.25" y="239.99" width="20.09" height="15.44"/></g><g class="cls-82"><rect class="cls-83" x="329.69" y="256.84" width="20.21" height="10.2"/></g><g class="cls-84"><rect class="cls-85" x="323.64" y="264.39" width="18.31" height="17.11"/></g><g class="cls-86"><rect class="cls-87" x="313.02" y="276" width="21.9" height="20.3"/></g><g class="cls-88"><rect class="cls-89" x="304.31" y="289.08" width="18.29" height="17.13"/></g><g class="cls-90"><rect class="cls-91" x="295.63" y="299.46" width="17.95" height="18.03"/></g><g class="cls-92"><rect class="cls-93" x="282.6" y="311.57" width="17.32" height="17.97"/></g><g class="cls-94"><rect class="cls-95" x="284.63" y="308.47" width="3.53" height="3.19"/></g><g class="cls-96"><rect class="cls-97" x="266.36" y="318.84" width="21.06" height="22.41"/></g><g class="cls-98"><rect class="cls-99" x="280.55" y="311.59" width="3.51" height="3.19"/></g><g class="cls-100"><rect class="cls-101" x="241.83" y="336.44" width="15.71" height="20.05"/></g><g class="cls-102"><rect class="cls-103" x="224.68" y="340.13" width="16.58" height="20.36"/></g><g class="cls-104"><rect class="cls-105" x="210.5" y="344.71" width="13.16" height="18.73"/></g><g class="cls-106"><rect class="cls-107" x="204.02" y="346.47" width="5.68" height="17.94"/></g><g class="cls-108"><rect class="cls-109" x="187.73" y="347.06" width="14.47" height="18.38"/></g><g class="cls-110"><rect class="cls-111" x="172.73" y="347.47" width="13.07" height="18.42"/></g><g class="cls-112"><rect class="cls-113" x="156.87" y="345.38" width="13.07" height="19.45"/></g><g class="cls-114"><rect class="cls-115" x="144.66" y="342.21" width="12.67" height="19.39"/></g><g class="cls-116"><rect class="cls-117" x="110.33" y="333.24" width="15.1" height="18.33"/></g><g class="cls-118"><rect class="cls-119" x="96.81" y="326.57" width="16.73" height="18.57"/></g><g class="cls-120"><rect class="cls-121" x="79.64" y="315" width="21.74" height="22.58"/></g><g class="cls-122"><rect class="cls-123" x="72.5" y="310.33" width="13.75" height="15.91"/></g><g class="cls-124"><rect class="cls-125" x="60.24" y="300.15" width="19.42" height="15.06"/></g><g class="cls-126"><rect class="cls-127" x="66.43" y="291.24" width="3.34" height="3.27"/></g><g class="cls-128"><rect class="cls-129" x="48.82" y="289.57" width="18.06" height="17.36"/></g><g class="cls-130"><rect class="cls-131" x="63.1" y="287.31" width="3.34" height="3.27"/></g><g class="cls-132"><rect class="cls-133" x="37.43" y="275.47" width="21.57" height="20.55"/></g><g class="cls-134"><rect class="cls-135" x="27.97" y="260.35" width="22.14" height="20.66"/></g><g class="cls-136"><rect class="cls-137" x="23.89" y="253.34" width="17.38" height="9.84"/></g><g class="cls-138"><rect class="cls-139" x="19.29" y="242.54" width="17.64" height="14.98"/></g></svg>